<ttFont>
<head>
    <!-- Most of this table will be recalculated by the compiler -->
    <tableVersion value="1.0"/>
    <fontRevision value="0.84999"/>
    <checkSumAdjustment value="0xf3836349"/>
    <magicNumber value="0x5f0f3cf5"/>
    <flags value="00000000 00000111"/>
    <unitsPerEm value="1000"/>
    <created value="Sat Nov 28 12:14:13 2020"/>
    <modified value="Wed Sep  1 18:33:29 2021"/>
    <xMin value="-144"/>
    <yMin value="-219"/>
    <xMax value="608"/>
    <yMax value="1024"/>
    <macStyle value="00000000 00000001"/>
    <lowestRecPPEM value="7"/>
    <fontDirectionHint value="2"/>
    <indexToLocFormat value="0"/>
    <glyphDataFormat value="0"/>
  </head>
    <TTGlyph name=".notdef" xMin="98" yMin="-200" xMax="431" yMax="850">
      <contour>
        <pt x="431" y="-200" on="1"/>
        <pt x="98" y="-200" on="1"/>
        <pt x="98" y="850" on="1"/>
        <pt x="431" y="850" on="1"/>
      </contour>
      <contour>
        <pt x="350" y="-128" on="1"/>
        <pt x="350" y="-93" on="1"/>
        <pt x="243" y="-93" on="1"/>
        <pt x="316" y="-44" on="1"/>
        <pt x="350" y="-44" on="1"/>
        <pt x="350" y="-9" on="1"/>
        <pt x="175" y="-9" on="1"/>
        <pt x="175" y="-44" on="1"/>
        <pt x="249" y="-44" on="1"/>
        <pt x="175" y="-93" on="1"/>
        <pt x="175" y="-128" on="1"/>
      </contour>
      <contour>
        <pt x="350" y="15" on="1"/>
        <pt x="350" y="134" on="1"/>
        <pt x="175" y="134" on="1"/>
        <pt x="175" y="15" on="1"/>
      </contour>
      <contour>
        <pt x="350" y="197" on="1"/>
        <pt x="350" y="316" on="1"/>
        <pt x="245" y="316" on="1"/>
        <pt x="245" y="257" on="1"/>
        <pt x="280" y="257" on="1"/>
        <pt x="280" y="281" on="1"/>
        <pt x="315" y="281" on="1"/>
        <pt x="315" y="232" on="1"/>
        <pt x="210" y="232" on="1"/>
        <pt x="210" y="316" on="1"/>
        <pt x="175" y="316" on="1"/>
        <pt x="175" y="197" on="1"/>
      </contour>
      <contour>
        <pt x="350" y="339" on="1"/>
        <pt x="350" y="444" on="1"/>
        <pt x="315" y="444" on="1"/>
        <pt x="315" y="374" on="1"/>
        <pt x="175" y="374" on="1"/>
        <pt x="175" y="339" on="1"/>
      </contour>
      <contour>
        <pt x="280" y="399" on="1"/>
        <pt x="280" y="472" on="1"/>
        <pt x="350" y="472" on="1"/>
        <pt x="350" y="507" on="1"/>
        <pt x="175" y="507" on="1"/>
        <pt x="175" y="472" on="1"/>
        <pt x="245" y="472" on="1"/>
        <pt x="245" y="433" on="1"/>
        <pt x="175" y="433" on="1"/>
        <pt x="175" y="399" on="1"/>
      </contour>
      <contour>
        <pt x="350" y="535" on="1"/>
        <pt x="350" y="571" on="1"/>
        <pt x="280" y="571" on="1"/>
        <pt x="280" y="644" on="1"/>
        <pt x="175" y="644" on="1"/>
        <pt x="175" y="535" on="1"/>
      </contour>
      <contour>
        <pt x="350" y="672" on="1"/>
        <pt x="350" y="706" on="1"/>
        <pt x="280" y="706" on="1"/>
        <pt x="280" y="745" on="1"/>
        <pt x="350" y="745" on="1"/>
        <pt x="350" y="780" on="1"/>
        <pt x="176" y="780" on="1"/>
        <pt x="176" y="745" on="1"/>
        <pt x="245" y="745" on="1"/>
        <pt x="245" y="706" on="1"/>
        <pt x="175" y="706" on="1"/>
        <pt x="175" y="672" on="1"/>
      </contour>
      <contour>
        <pt x="210" y="99" on="1"/>
        <pt x="315" y="99" on="1"/>
        <pt x="315" y="50" on="1"/>
        <pt x="210" y="50" on="1"/>
      </contour>
      <contour>
        <pt x="210" y="609" on="1"/>
        <pt x="245" y="609" on="1"/>
        <pt x="245" y="571" on="1"/>
        <pt x="210" y="571" on="1"/>
      </contour>
    </TTGlyph>
    <TTGlyph name="A" xMin="27" yMin="0" xMax="573" yMax="800">
      <contour>
        <pt x="365" y="239" on="1"/>
        <pt x="230" y="239" on="1"/>
        <pt x="191" y="0" on="1"/>
        <pt x="27" y="0" on="1"/>
        <pt x="171" y="800" on="1"/>
        <pt x="429" y="800" on="1"/>
        <pt x="573" y="0" on="1"/>
        <pt x="404" y="0" on="1"/>
      </contour>
      <contour>
        <pt x="341" y="391" on="1"/>
        <pt x="298" y="658" on="1"/>
        <pt x="255" y="391" on="1"/>
      </contour>
    </TTGlyph>
    <TTGlyph name="B" xMin="71" yMin="0" xMax="574" yMax="800">
      <contour>
        <pt x="437" y="800" on="0"/>
        <pt x="574" y="688" on="0"/>
        <pt x="574" y="585" on="1"/>
        <pt x="574" y="515" on="0"/>
        <pt x="505" y="430" on="0"/>
        <pt x="440" y="419" on="1"/>
        <pt x="440" y="382" on="1"/>
        <pt x="503" y="371" on="0"/>
        <pt x="570" y="287" on="0"/>
        <pt x="570" y="219" on="1"/>
        <pt x="570" y="114" on="0"/>
        <pt x="432" y="0" on="0"/>
        <pt x="306" y="0" on="1"/>
        <pt x="71" y="0" on="1"/>
        <pt x="71" y="800" on="1"/>
        <pt x="311" y="800" on="1"/>
      </contour>
      <contour>
        <pt x="306" y="151" on="1"/>
        <pt x="408" y="151" on="0"/>
        <pt x="408" y="240" on="1"/>
        <pt x="408" y="284" on="0"/>
        <pt x="356" y="330" on="0"/>
        <pt x="306" y="330" on="1"/>
        <pt x="234" y="330" on="1"/>
        <pt x="234" y="151" on="1"/>
      </contour>
      <contour>
        <pt x="311" y="471" on="1"/>
        <pt x="412" y="471" on="0"/>
        <pt x="412" y="560" on="1"/>
        <pt x="412" y="649" on="0"/>
        <pt x="311" y="649" on="1"/>
        <pt x="234" y="649" on="1"/>
        <pt x="234" y="471" on="1"/>
      </contour>
    </TTGlyph>
    <TTGlyph name="C" xMin="51" yMin="-19" xMax="567" yMax="819">
      <contour>
        <pt x="179" y="-19" on="0"/>
        <pt x="51" y="186" on="0"/>
        <pt x="51" y="400" on="1"/>
        <pt x="51" y="614" on="0"/>
        <pt x="182" y="819" on="0"/>
        <pt x="318" y="819" on="1"/>
        <pt x="435" y="819" on="0"/>
        <pt x="557" y="672" on="0"/>
        <pt x="567" y="519" on="1"/>
        <pt x="409" y="519" on="1"/>
        <pt x="402" y="594" on="0"/>
        <pt x="359" y="663" on="0"/>
        <pt x="318" y="663" on="1"/>
        <pt x="263" y="663" on="0"/>
        <pt x="214" y="538" on="0"/>
        <pt x="214" y="400" on="1"/>
        <pt x="214" y="262" on="0"/>
        <pt x="260" y="137" on="0"/>
        <pt x="312" y="137" on="1"/>
        <pt x="351" y="137" on="0"/>
        <pt x="392" y="200" on="0"/>
        <pt x="398" y="269" on="1"/>
        <pt x="557" y="269" on="1"/>
        <pt x="544" y="123" on="0"/>
        <pt x="424" y="-19" on="0"/>
        <pt x="312" y="-19" on="1"/>
      </contour>
    </TTGlyph>
    <TTGlyph name="D" xMin="54" yMin="0" xMax="560" yMax="800">
      <contour>
        <pt x="54" y="800" on="1"/>
        <pt x="261" y="800" on="1"/>
        <pt x="416" y="800" on="0"/>
        <pt x="560" y="608" on="0"/>
        <pt x="560" y="400" on="1"/>
        <pt x="560" y="192" on="0"/>
        <pt x="416" y="0" on="0"/>
        <pt x="261" y="0" on="1"/>
        <pt x="54" y="0" on="1"/>
      </contour>
      <contour>
        <pt x="261" y="156" on="1"/>
        <pt x="329" y="156" on="0"/>
        <pt x="392" y="274" on="0"/>
        <pt x="392" y="400" on="1"/>
        <pt x="392" y="526" on="0"/>
        <pt x="329" y="644" on="0"/>
        <pt x="261" y="644" on="1"/>
        <pt x="216" y="644" on="1"/>
        <pt x="216" y="156" on="1"/>
      </contour>
    </TTGlyph>
    <TTGlyph name="E" xMin="87" yMin="0" xMax="547" yMax="800">
      <contour>
        <pt x="87" y="800" on="1"/>
        <pt x="547" y="800" on="1"/>
        <pt x="547" y="644" on="1"/>
        <pt x="250" y="644" on="1"/>
        <pt x="250" y="473" on="1"/>
        <pt x="497" y="473" on="1"/>
        <pt x="497" y="324" on="1"/>
        <pt x="250" y="324" on="1"/>
        <pt x="250" y="156" on="1"/>
        <pt x="527" y="156" on="1"/>
        <pt x="527" y="0" on="1"/>
        <pt x="87" y="0" on="1"/>
      </contour>
    </TTGlyph>
    <TTGlyph name="Euro" xMin="40" yMin="-19" xMax="575" yMax="819">
      <contour>
        <pt x="231" y="-19" on="0"/>
        <pt x="118" y="116" on="0"/>
        <pt x="101" y="259" on="1"/>
        <pt x="40" y="259" on="1"/>
        <pt x="40" y="370" on="1"/>
        <pt x="94" y="370" on="1"/>
        <pt x="94" y="400" on="1"/>
        <pt x="94" y="437" on="1"/>
        <pt x="40" y="437" on="1"/>
        <pt x="40" y="547" on="1"/>
        <pt x="102" y="547" on="1"/>
        <pt x="119" y="687" on="0"/>
        <pt x="236" y="819" on="0"/>
        <pt x="341" y="819" on="1"/>
        <pt x="456" y="819" on="0"/>
        <pt x="570" y="680" on="0"/>
        <pt x="575" y="531" on="1"/>
        <pt x="413" y="531" on="1"/>
        <pt x="410" y="600" on="0"/>
        <pt x="377" y="663" on="0"/>
        <pt x="343" y="663" on="1"/>
        <pt x="313" y="663" on="0"/>
        <pt x="277" y="607" on="0"/>
        <pt x="269" y="547" on="1"/>
        <pt x="367" y="547" on="1"/>
        <pt x="367" y="437" on="1"/>
        <pt x="261" y="437" on="1"/>
        <pt x="261" y="400" on="1"/>
        <pt x="261" y="370" on="1"/>
        <pt x="367" y="370" on="1"/>
        <pt x="367" y="259" on="1"/>
        <pt x="267" y="259" on="1"/>
        <pt x="275" y="196" on="0"/>
        <pt x="308" y="137" on="0"/>
        <pt x="336" y="137" on="1"/>
        <pt x="367" y="137" on="0"/>
        <pt x="398" y="193" on="0"/>
        <pt x="401" y="256" on="1"/>
        <pt x="562" y="256" on="1"/>
        <pt x="554" y="114" on="0"/>
        <pt x="444" y="-19" on="0"/>
        <pt x="335" y="-19" on="1"/>
      </contour>
    </TTGlyph>
    <TTGlyph name="F" xMin="97" yMin="0" xMax="557" yMax="800">
      <contour>
        <pt x="97" y="800" on="1"/>
        <pt x="557" y="800" on="1"/>
        <pt x="557" y="644" on="1"/>
        <pt x="260" y="644" on="1"/>
        <pt x="260" y="457" on="1"/>
        <pt x="517" y="457" on="1"/>
        <pt x="517" y="306" on="1"/>
        <pt x="260" y="306" on="1"/>
        <pt x="260" y="0" on="1"/>
        <pt x="97" y="0" on="1"/>
      </contour>
    </TTGlyph>
    <TTGlyph name="G" xMin="45" yMin="-19" xMax="561" yMax="819">
      <contour>
        <pt x="150" y="-19" on="0"/>
        <pt x="45" y="194" on="0"/>
        <pt x="45" y="400" on="1"/>
        <pt x="45" y="614" on="0"/>
        <pt x="176" y="819" on="0"/>
        <pt x="312" y="819" on="1"/>
        <pt x="430" y="819" on="0"/>
        <pt x="553" y="680" on="0"/>
        <pt x="561" y="537" on="1"/>
        <pt x="403" y="537" on="1"/>
        <pt x="398" y="603" on="0"/>
        <pt x="354" y="663" on="0"/>
        <pt x="312" y="663" on="1"/>
        <pt x="257" y="663" on="0"/>
        <pt x="207" y="538" on="0"/>
        <pt x="207" y="400" on="1"/>
        <pt x="207" y="261" on="0"/>
        <pt x="259" y="135" on="0"/>
        <pt x="315" y="135" on="1"/>
        <pt x="350" y="135" on="0"/>
        <pt x="390" y="200" on="0"/>
        <pt x="398" y="273" on="1"/>
        <pt x="300" y="273" on="1"/>
        <pt x="300" y="418" on="1"/>
        <pt x="539" y="418" on="1"/>
        <pt x="539" y="0" on="1"/>
        <pt x="395" y="0" on="1"/>
        <pt x="395" y="77" on="1"/>
        <pt x="358" y="77" on="1"/>
        <pt x="346" y="28" on="0"/>
        <pt x="292" y="-19" on="0"/>
        <pt x="249" y="-19" on="1"/>
      </contour>
    </TTGlyph>
    <TTGlyph name="H" xMin="54" yMin="0" xMax="546" yMax="800">
      <contour>
        <pt x="216" y="800" on="1"/>
        <pt x="216" y="474" on="1"/>
        <pt x="384" y="474" on="1"/>
        <pt x="384" y="800" on="1"/>
        <pt x="546" y="800" on="1"/>
        <pt x="546" y="0" on="1"/>
        <pt x="384" y="0" on="1"/>
        <pt x="384" y="322" on="1"/>
        <pt x="216" y="322" on="1"/>
        <pt x="216" y="0" on="1"/>
        <pt x="54" y="0" on="1"/>
        <pt x="54" y="800" on="1"/>
      </contour>
    </TTGlyph>
    <TTGlyph name="I" xMin="74" yMin="0" xMax="526" yMax="800">
      <contour>
        <pt x="74" y="156" on="1"/>
        <pt x="219" y="156" on="1"/>
        <pt x="219" y="644" on="1"/>
        <pt x="74" y="644" on="1"/>
        <pt x="74" y="800" on="1"/>
        <pt x="526" y="800" on="1"/>
        <pt x="526" y="644" on="1"/>
        <pt x="381" y="644" on="1"/>
        <pt x="381" y="156" on="1"/>
        <pt x="526" y="156" on="1"/>
        <pt x="526" y="0" on="1"/>
        <pt x="74" y="0" on="1"/>
      </contour>
    </TTGlyph>
    <TTGlyph name="J" xMin="56" yMin="-19" xMax="530" yMax="800">
      <contour>
        <pt x="178" y="-19" on="0"/>
        <pt x="56" y="113" on="0"/>
        <pt x="56" y="234" on="1"/>
        <pt x="56" y="350" on="1"/>
        <pt x="216" y="350" on="1"/>
        <pt x="216" y="234" on="1"/>
        <pt x="216" y="137" on="0"/>
        <pt x="291" y="137" on="1"/>
        <pt x="367" y="137" on="0"/>
        <pt x="367" y="234" on="1"/>
        <pt x="367" y="644" on="1"/>
        <pt x="113" y="644" on="1"/>
        <pt x="113" y="800" on="1"/>
        <pt x="530" y="800" on="1"/>
        <pt x="530" y="234" on="1"/>
        <pt x="530" y="113" on="0"/>
        <pt x="406" y="-19" on="0"/>
        <pt x="291" y="-19" on="1"/>
      </contour>
    </TTGlyph>
    <TTGlyph name="K" xMin="77" yMin="0" xMax="597" yMax="800">
      <contour>
        <pt x="240" y="800" on="1"/>
        <pt x="240" y="457" on="1"/>
        <pt x="415" y="800" on="1"/>
        <pt x="597" y="800" on="1"/>
        <pt x="379" y="389" on="1"/>
        <pt x="584" y="0" on="1"/>
        <pt x="399" y="0" on="1"/>
        <pt x="240" y="315" on="1"/>
        <pt x="240" y="0" on="1"/>
        <pt x="77" y="0" on="1"/>
        <pt x="77" y="800" on="1"/>
      </contour>
    </TTGlyph>
    <TTGlyph name="L" xMin="116" yMin="0" xMax="555" yMax="800">
      <contour>
        <pt x="116" y="800" on="1"/>
        <pt x="278" y="800" on="1"/>
        <pt x="278" y="156" on="1"/>
        <pt x="555" y="156" on="1"/>
        <pt x="555" y="0" on="1"/>
        <pt x="116" y="0" on="1"/>
      </contour>
    </TTGlyph>
    <TTGlyph name="M" xMin="40" yMin="0" xMax="560" yMax="800">
      <contour>
        <pt x="40" y="800" on="1"/>
        <pt x="251" y="800" on="1"/>
        <pt x="296" y="376" on="1"/>
        <pt x="312" y="376" on="1"/>
        <pt x="357" y="800" on="1"/>
        <pt x="560" y="800" on="1"/>
        <pt x="560" y="0" on="1"/>
        <pt x="424" y="0" on="1"/>
        <pt x="424" y="295" on="1"/>
        <pt x="438" y="654" on="1"/>
        <pt x="421" y="654" on="1"/>
        <pt x="376" y="257" on="1"/>
        <pt x="224" y="257" on="1"/>
        <pt x="179" y="654" on="1"/>
        <pt x="162" y="654" on="1"/>
        <pt x="176" y="295" on="1"/>
        <pt x="176" y="0" on="1"/>
        <pt x="40" y="0" on="1"/>
      </contour>
    </TTGlyph>
    <TTGlyph name="N" xMin="54" yMin="0" xMax="546" yMax="800">
      <contour>
        <pt x="54" y="800" on="1"/>
        <pt x="308" y="800" on="1"/>
        <pt x="400" y="136" on="1"/>
        <pt x="417" y="136" on="1"/>
        <pt x="403" y="476" on="1"/>
        <pt x="403" y="800" on="1"/>
        <pt x="546" y="800" on="1"/>
        <pt x="546" y="0" on="1"/>
        <pt x="292" y="0" on="1"/>
        <pt x="200" y="664" on="1"/>
        <pt x="183" y="664" on="1"/>
        <pt x="197" y="324" on="1"/>
        <pt x="197" y="0" on="1"/>
        <pt x="54" y="0" on="1"/>
      </contour>
    </TTGlyph>
    <TTGlyph name="O" xMin="32" yMin="-19" xMax="568" yMax="819">
      <contour>
        <pt x="163" y="-19" on="0"/>
        <pt x="32" y="186" on="0"/>
        <pt x="32" y="400" on="1"/>
        <pt x="32" y="614" on="0"/>
        <pt x="163" y="819" on="0"/>
        <pt x="300" y="819" on="1"/>
        <pt x="437" y="819" on="0"/>
        <pt x="568" y="614" on="0"/>
        <pt x="568" y="400" on="1"/>
        <pt x="568" y="186" on="0"/>
        <pt x="437" y="-19" on="0"/>
        <pt x="300" y="-19" on="1"/>
      </contour>
      <contour>
        <pt x="195" y="257" on="0"/>
        <pt x="245" y="128" on="0"/>
        <pt x="300" y="128" on="1"/>
        <pt x="355" y="128" on="0"/>
        <pt x="405" y="257" on="0"/>
        <pt x="405" y="400" on="1"/>
        <pt x="405" y="543" on="0"/>
        <pt x="355" y="672" on="0"/>
        <pt x="300" y="672" on="1"/>
        <pt x="245" y="672" on="0"/>
        <pt x="195" y="543" on="0"/>
        <pt x="195" y="400" on="1"/>
      </contour>
    </TTGlyph>
    <TTGlyph name="P" xMin="71" yMin="0" xMax="574" yMax="800">
      <contour>
        <pt x="71" y="800" on="1"/>
        <pt x="325" y="800" on="1"/>
        <pt x="400" y="800" on="0"/>
        <pt x="513" y="739" on="0"/>
        <pt x="574" y="626" on="0"/>
        <pt x="574" y="551" on="1"/>
        <pt x="574" y="478" on="0"/>
        <pt x="513" y="369" on="0"/>
        <pt x="400" y="310" on="0"/>
        <pt x="325" y="310" on="1"/>
        <pt x="233" y="310" on="1"/>
        <pt x="233" y="0" on="1"/>
        <pt x="71" y="0" on="1"/>
      </contour>
      <contour>
        <pt x="311" y="457" on="1"/>
        <pt x="359" y="457" on="0"/>
        <pt x="411" y="506" on="0"/>
        <pt x="411" y="551" on="1"/>
        <pt x="411" y="595" on="0"/>
        <pt x="359" y="644" on="0"/>
        <pt x="311" y="644" on="1"/>
        <pt x="233" y="644" on="1"/>
        <pt x="233" y="457" on="1"/>
      </contour>
    </TTGlyph>
    <TTGlyph name="Q" xMin="32" yMin="-219" xMax="568" yMax="819">
      <contour>
        <pt x="355" y="128" on="0"/>
        <pt x="405" y="257" on="0"/>
        <pt x="405" y="400" on="1"/>
        <pt x="405" y="543" on="0"/>
        <pt x="355" y="672" on="0"/>
        <pt x="300" y="672" on="1"/>
        <pt x="245" y="672" on="0"/>
        <pt x="195" y="543" on="0"/>
        <pt x="195" y="400" on="1"/>
        <pt x="195" y="257" on="0"/>
        <pt x="245" y="128" on="0"/>
        <pt x="300" y="128" on="1"/>
      </contour>
      <contour>
        <pt x="32" y="614" on="0"/>
        <pt x="163" y="819" on="0"/>
        <pt x="300" y="819" on="1"/>
        <pt x="437" y="819" on="0"/>
        <pt x="568" y="614" on="0"/>
        <pt x="568" y="400" on="1"/>
        <pt x="568" y="204" on="0"/>
        <pt x="458" y="-1" on="0"/>
        <pt x="343" y="-16" on="1"/>
        <pt x="540" y="-76" on="1"/>
        <pt x="540" y="-219" on="1"/>
        <pt x="280" y="-139" on="1"/>
        <pt x="280" y="-18" on="1"/>
        <pt x="154" y="-11" on="0"/>
        <pt x="32" y="194" on="0"/>
        <pt x="32" y="400" on="1"/>
      </contour>
    </TTGlyph>
    <TTGlyph name="R" xMin="61" yMin="0" xMax="584" yMax="800">
      <contour>
        <pt x="61" y="800" on="1"/>
        <pt x="306" y="800" on="1"/>
        <pt x="384" y="800" on="0"/>
        <pt x="501" y="739" on="0"/>
        <pt x="565" y="627" on="0"/>
        <pt x="565" y="553" on="1"/>
        <pt x="565" y="476" on="0"/>
        <pt x="489" y="366" on="0"/>
        <pt x="420" y="340" on="1"/>
        <pt x="584" y="0" on="1"/>
        <pt x="409" y="0" on="1"/>
        <pt x="264" y="321" on="1"/>
        <pt x="224" y="321" on="1"/>
        <pt x="224" y="0" on="1"/>
        <pt x="61" y="0" on="1"/>
      </contour>
      <contour>
        <pt x="292" y="461" on="1"/>
        <pt x="345" y="461" on="0"/>
        <pt x="402" y="509" on="0"/>
        <pt x="402" y="553" on="1"/>
        <pt x="402" y="596" on="0"/>
        <pt x="345" y="644" on="0"/>
        <pt x="292" y="644" on="1"/>
        <pt x="224" y="644" on="1"/>
        <pt x="224" y="461" on="1"/>
      </contour>
    </TTGlyph>
    <TTGlyph name="S" xMin="55" yMin="-19" xMax="559" yMax="819">
      <contour>
        <pt x="218" y="176" on="0"/>
        <pt x="263" y="136" on="0"/>
        <pt x="304" y="136" on="1"/>
        <pt x="341" y="136" on="0"/>
        <pt x="381" y="185" on="0"/>
        <pt x="381" y="231" on="1"/>
        <pt x="381" y="267" on="0"/>
        <pt x="351" y="307" on="0"/>
        <pt x="319" y="313" on="1"/>
        <pt x="273" y="322" on="1"/>
        <pt x="64" y="363" on="0"/>
        <pt x="64" y="566" on="1"/>
        <pt x="64" y="685" on="0"/>
        <pt x="195" y="819" on="0"/>
        <pt x="310" y="819" on="1"/>
        <pt x="425" y="819" on="0"/>
        <pt x="551" y="688" on="0"/>
        <pt x="559" y="563" on="1"/>
        <pt x="401" y="563" on="1"/>
        <pt x="396" y="614" on="0"/>
        <pt x="351" y="664" on="0"/>
        <pt x="309" y="664" on="1"/>
        <pt x="269" y="664" on="0"/>
        <pt x="227" y="614" on="0"/>
        <pt x="227" y="568" on="1"/>
        <pt x="227" y="497" on="0"/>
        <pt x="289" y="485" on="1"/>
        <pt x="335" y="477" on="1"/>
        <pt x="544" y="436" on="0"/>
        <pt x="544" y="232" on="1"/>
        <pt x="544" y="114" on="0"/>
        <pt x="416" y="-19" on="0"/>
        <pt x="303" y="-19" on="1"/>
        <pt x="191" y="-19" on="0"/>
        <pt x="66" y="101" on="0"/>
        <pt x="55" y="217" on="1"/>
        <pt x="214" y="217" on="1"/>
      </contour>
    </TTGlyph>
    <TTGlyph name="T" xMin="42" yMin="0" xMax="558" yMax="800">
      <contour>
        <pt x="219" y="644" on="1"/>
        <pt x="42" y="644" on="1"/>
        <pt x="42" y="800" on="1"/>
        <pt x="558" y="800" on="1"/>
        <pt x="558" y="644" on="1"/>
        <pt x="381" y="644" on="1"/>
        <pt x="381" y="0" on="1"/>
        <pt x="219" y="0" on="1"/>
      </contour>
    </TTGlyph>
    <TTGlyph name="U" xMin="48" yMin="-19" xMax="552" yMax="800">
      <contour>
        <pt x="210" y="800" on="1"/>
        <pt x="210" y="250" on="1"/>
        <pt x="210" y="137" on="0"/>
        <pt x="300" y="137" on="1"/>
        <pt x="390" y="137" on="0"/>
        <pt x="390" y="250" on="1"/>
        <pt x="390" y="800" on="1"/>
        <pt x="552" y="800" on="1"/>
        <pt x="552" y="250" on="1"/>
        <pt x="552" y="121" on="0"/>
        <pt x="421" y="-19" on="0"/>
        <pt x="300" y="-19" on="1"/>
        <pt x="179" y="-19" on="0"/>
        <pt x="48" y="121" on="0"/>
        <pt x="48" y="250" on="1"/>
        <pt x="48" y="800" on="1"/>
      </contour>
    </TTGlyph>
    <TTGlyph name="V" xMin="27" yMin="0" xMax="573" yMax="800">
      <contour>
        <pt x="302" y="142" on="1"/>
        <pt x="409" y="800" on="1"/>
        <pt x="573" y="800" on="1"/>
        <pt x="429" y="0" on="1"/>
        <pt x="171" y="0" on="1"/>
        <pt x="27" y="800" on="1"/>
        <pt x="196" y="800" on="1"/>
      </contour>
    </TTGlyph>
    <TTGlyph name="W" xMin="15" yMin="0" xMax="585" yMax="800">
      <contour>
        <pt x="199" y="143" on="1"/>
        <pt x="233" y="613" on="1"/>
        <pt x="373" y="613" on="1"/>
        <pt x="405" y="149" on="1"/>
        <pt x="441" y="800" on="1"/>
        <pt x="585" y="800" on="1"/>
        <pt x="505" y="0" on="1"/>
        <pt x="334" y="0" on="1"/>
        <pt x="300" y="488" on="1"/>
        <pt x="265" y="0" on="1"/>
        <pt x="95" y="0" on="1"/>
        <pt x="15" y="800" on="1"/>
        <pt x="163" y="800" on="1"/>
      </contour>
    </TTGlyph>
    <TTGlyph name="X" xMin="31" yMin="0" xMax="569" yMax="800">
      <contour>
        <pt x="301" y="479" on="1"/>
        <pt x="399" y="800" on="1"/>
        <pt x="569" y="800" on="1"/>
        <pt x="431" y="389" on="1"/>
        <pt x="557" y="0" on="1"/>
        <pt x="380" y="0" on="1"/>
        <pt x="299" y="289" on="1"/>
        <pt x="214" y="0" on="1"/>
        <pt x="43" y="0" on="1"/>
        <pt x="169" y="389" on="1"/>
        <pt x="31" y="800" on="1"/>
        <pt x="207" y="800" on="1"/>
      </contour>
    </TTGlyph>
    <TTGlyph name="Y" xMin="19" yMin="0" xMax="581" yMax="800">
      <contour>
        <pt x="301" y="482" on="1"/>
        <pt x="411" y="800" on="1"/>
        <pt x="581" y="800" on="1"/>
        <pt x="381" y="302" on="1"/>
        <pt x="381" y="0" on="1"/>
        <pt x="219" y="0" on="1"/>
        <pt x="219" y="302" on="1"/>
        <pt x="19" y="800" on="1"/>
        <pt x="191" y="800" on="1"/>
      </contour>
    </TTGlyph>
    <TTGlyph name="Z" xMin="70" yMin="0" xMax="530" yMax="800">
      <contour>
        <pt x="70" y="261" on="1"/>
        <pt x="421" y="644" on="1"/>
        <pt x="70" y="644" on="1"/>
        <pt x="70" y="800" on="1"/>
        <pt x="530" y="800" on="1"/>
        <pt x="530" y="539" on="1"/>
        <pt x="179" y="156" on="1"/>
        <pt x="530" y="156" on="1"/>
        <pt x="530" y="0" on="1"/>
        <pt x="70" y="0" on="1"/>
      </contour>
    </TTGlyph>
    <TTGlyph name="_part.multiply" xMin="64" yMin="114" xMax="536" yMax="586">
      <contour>
        <pt x="64" y="497" on="1"/>
        <pt x="153" y="586" on="1"/>
        <pt x="536" y="203" on="1"/>
        <pt x="447" y="114" on="1"/>
      </contour>
    </TTGlyph>
    <TTGlyph name="a" xMin="44" yMin="-16" xMax="520" yMax="632">
      <contour>
        <pt x="50" y="508" on="0"/>
        <pt x="183" y="632" on="0"/>
        <pt x="292" y="632" on="1"/>
        <pt x="401" y="632" on="0"/>
        <pt x="520" y="521" on="0"/>
        <pt x="520" y="418" on="1"/>
        <pt x="520" y="0" on="1"/>
        <pt x="364" y="0" on="1"/>
        <pt x="364" y="71" on="1"/>
        <pt x="328" y="71" on="1"/>
        <pt x="321" y="29" on="0"/>
        <pt x="263" y="-16" on="0"/>
        <pt x="216" y="-16" on="1"/>
        <pt x="151" y="-16" on="0"/>
        <pt x="68" y="78" on="0"/>
        <pt x="68" y="151" on="1"/>
        <pt x="68" y="237" on="0"/>
        <pt x="156" y="339" on="0"/>
        <pt x="245" y="356" on="1"/>
        <pt x="364" y="379" on="1"/>
        <pt x="364" y="405" on="1"/>
        <pt x="364" y="450" on="0"/>
        <pt x="327" y="496" on="0"/>
        <pt x="292" y="496" on="1"/>
        <pt x="252" y="496" on="0"/>
        <pt x="203" y="446" on="0"/>
        <pt x="198" y="400" on="1"/>
        <pt x="44" y="400" on="1"/>
      </contour>
      <contour>
        <pt x="220" y="140" on="0"/>
        <pt x="252" y="106" on="0"/>
        <pt x="279" y="106" on="1"/>
        <pt x="314" y="106" on="0"/>
        <pt x="364" y="167" on="0"/>
        <pt x="364" y="211" on="1"/>
        <pt x="364" y="256" on="1"/>
        <pt x="284" y="241" on="1"/>
        <pt x="254" y="235" on="0"/>
        <pt x="220" y="196" on="0"/>
        <pt x="220" y="168" on="1"/>
      </contour>
    </TTGlyph>
    <TTGlyph name="ampersand" xMin="44" yMin="-28" xMax="556" yMax="819">
      <contour>
        <pt x="44" y="276" on="0"/>
        <pt x="117" y="386" on="0"/>
        <pt x="183" y="439" on="1"/>
        <pt x="137" y="500" on="0"/>
        <pt x="95" y="594" on="0"/>
        <pt x="95" y="637" on="1"/>
        <pt x="95" y="722" on="0"/>
        <pt x="192" y="819" on="0"/>
        <pt x="276" y="819" on="1"/>
        <pt x="360" y="819" on="0"/>
        <pt x="456" y="721" on="0"/>
        <pt x="456" y="636" on="1"/>
        <pt x="456" y="572" on="0"/>
        <pt x="397" y="478" on="0"/>
        <pt x="344" y="430" on="1"/>
        <pt x="414" y="342" on="1"/>
        <pt x="418" y="391" on="0"/>
        <pt x="419" y="424" on="1"/>
        <pt x="546" y="424" on="1"/>
        <pt x="537" y="300" on="0"/>
        <pt x="512" y="216" on="1"/>
        <pt x="556" y="160" on="1"/>
        <pt x="556" y="-28" on="1"/>
        <pt x="460" y="93" on="1"/>
        <pt x="388" y="-19" on="0"/>
        <pt x="264" y="-19" on="1"/>
        <pt x="199" y="-19" on="0"/>
        <pt x="99" y="34" on="0"/>
        <pt x="44" y="130" on="0"/>
        <pt x="44" y="193" on="1"/>
      </contour>
      <contour>
        <pt x="199" y="180" on="0"/>
        <pt x="240" y="131" on="0"/>
        <pt x="274" y="131" on="1"/>
        <pt x="339" y="131" on="0"/>
        <pt x="375" y="198" on="1"/>
        <pt x="256" y="348" on="1"/>
        <pt x="229" y="318" on="0"/>
        <pt x="199" y="257" on="0"/>
        <pt x="199" y="220" on="1"/>
      </contour>
      <contour>
        <pt x="234" y="589" on="0"/>
        <pt x="253" y="545" on="0"/>
        <pt x="274" y="520" on="1"/>
        <pt x="275" y="519" on="1"/>
        <pt x="317" y="564" on="0"/>
        <pt x="317" y="612" on="1"/>
        <pt x="317" y="639" on="0"/>
        <pt x="295" y="669" on="0"/>
        <pt x="276" y="669" on="1"/>
        <pt x="256" y="669" on="0"/>
        <pt x="234" y="639" on="0"/>
        <pt x="234" y="612" on="1"/>
      </contour>
    </TTGlyph>
    <TTGlyph name="approxequal" xMin="80" yMin="102" xMax="520" yMax="598">
      <component glyphName="asciitilde" x="0" y="126" flags="0x4"/>
      <component glyphName="asciitilde" x="0" y="-126" flags="0x4"/>
    </TTGlyph>
    <TTGlyph name="approxequal.case" xMin="80" yMin="152" xMax="520" yMax="648">
      <component glyphName="approxequal" x="0" y="50" flags="0x4"/>
    </TTGlyph>
    <TTGlyph name="asciicircum" xMin="61" yMin="529" xMax="539" yMax="819">
      <contour>
        <pt x="221" y="819" on="1"/>
        <pt x="379" y="819" on="1"/>
        <pt x="539" y="529" on="1"/>
        <pt x="385" y="529" on="1"/>
        <pt x="300" y="693" on="1"/>
        <pt x="215" y="529" on="1"/>
        <pt x="61" y="529" on="1"/>
      </contour>
    </TTGlyph>
    <TTGlyph name="asciitilde" xMin="80" yMin="228" xMax="520" yMax="472">
      <contour>
        <pt x="341" y="228" on="0"/>
        <pt x="287" y="269" on="0"/>
        <pt x="260" y="304" on="1"/>
        <pt x="244" y="324" on="0"/>
        <pt x="224" y="342" on="0"/>
        <pt x="213" y="342" on="1"/>
        <pt x="183" y="342" on="0"/>
        <pt x="177" y="276" on="1"/>
        <pt x="80" y="276" on="1"/>
        <pt x="94" y="472" on="0"/>
        <pt x="217" y="472" on="1"/>
        <pt x="259" y="472" on="0"/>
        <pt x="313" y="431" on="0"/>
        <pt x="340" y="396" on="1"/>
        <pt x="356" y="376" on="0"/>
        <pt x="376" y="358" on="0"/>
        <pt x="387" y="358" on="1"/>
        <pt x="417" y="358" on="0"/>
        <pt x="423" y="424" on="1"/>
        <pt x="520" y="424" on="1"/>
        <pt x="506" y="228" on="0"/>
        <pt x="383" y="228" on="1"/>
      </contour>
    </TTGlyph>
    <TTGlyph name="asciitilde.case" xMin="80" yMin="278" xMax="520" yMax="522">
      <component glyphName="asciitilde" x="0" y="50" flags="0x4"/>
    </TTGlyph>
    <TTGlyph name="asterisk" xMin="60" yMin="362" xMax="540" yMax="819">
      <contour>
        <pt x="376" y="819" on="1"/>
        <pt x="357" y="669" on="1"/>
        <pt x="493" y="733" on="1"/>
        <pt x="540" y="589" on="1"/>
        <pt x="393" y="561" on="1"/>
        <pt x="496" y="451" on="1"/>
        <pt x="373" y="362" on="1"/>
        <pt x="300" y="493" on="1"/>
        <pt x="227" y="362" on="1"/>
        <pt x="104" y="451" on="1"/>
        <pt x="207" y="561" on="1"/>
        <pt x="60" y="589" on="1"/>
        <pt x="107" y="733" on="1"/>
        <pt x="243" y="669" on="1"/>
        <pt x="224" y="819" on="1"/>
      </contour>
    </TTGlyph>
    <TTGlyph name="at" xMin="40" yMin="-138" xMax="556" yMax="819">
      <contour>
        <pt x="176" y="-138" on="0"/>
        <pt x="40" y="96" on="0"/>
        <pt x="40" y="340" on="1"/>
        <pt x="40" y="584" on="0"/>
        <pt x="178" y="819" on="0"/>
        <pt x="322" y="819" on="1"/>
        <pt x="441" y="819" on="0"/>
        <pt x="556" y="672" on="0"/>
        <pt x="556" y="520" on="1"/>
        <pt x="556" y="111" on="1"/>
        <pt x="444" y="111" on="1"/>
        <pt x="444" y="173" on="1"/>
        <pt x="408" y="173" on="1"/>
        <pt x="403" y="132" on="0"/>
        <pt x="365" y="92" on="0"/>
        <pt x="331" y="92" on="1"/>
        <pt x="279" y="92" on="0"/>
        <pt x="228" y="214" on="0"/>
        <pt x="228" y="340" on="1"/>
        <pt x="228" y="466" on="0"/>
        <pt x="279" y="588" on="0"/>
        <pt x="331" y="588" on="1"/>
        <pt x="395" y="588" on="0"/>
        <pt x="404" y="507" on="1"/>
        <pt x="441" y="507" on="1"/>
        <pt x="441" y="520" on="1"/>
        <pt x="441" y="607" on="0"/>
        <pt x="383" y="691" on="0"/>
        <pt x="322" y="691" on="1"/>
        <pt x="239" y="691" on="0"/>
        <pt x="159" y="518" on="0"/>
        <pt x="159" y="340" on="1"/>
        <pt x="159" y="161" on="0"/>
        <pt x="240" y="-12" on="0"/>
        <pt x="323" y="-12" on="1"/>
        <pt x="383" y="-12" on="0"/>
        <pt x="408" y="6" on="1"/>
        <pt x="408" y="-115" on="1"/>
        <pt x="378" y="-138" on="0"/>
        <pt x="317" y="-138" on="1"/>
      </contour>
      <contour>
        <pt x="347" y="218" on="0"/>
        <pt x="396" y="218" on="1"/>
        <pt x="445" y="218" on="0"/>
        <pt x="445" y="340" on="1"/>
        <pt x="445" y="462" on="0"/>
        <pt x="396" y="462" on="1"/>
        <pt x="347" y="462" on="0"/>
        <pt x="347" y="340" on="1"/>
      </contour>
    </TTGlyph>
    <TTGlyph name="b" xMin="71" yMin="-16" xMax="559" yMax="848">
      <contour>
        <pt x="338" y="-16" on="0"/>
        <pt x="274" y="36" on="0"/>
        <pt x="264" y="84" on="1"/>
        <pt x="227" y="84" on="1"/>
        <pt x="227" y="0" on="1"/>
        <pt x="71" y="0" on="1"/>
        <pt x="71" y="848" on="1"/>
        <pt x="227" y="848" on="1"/>
        <pt x="227" y="529" on="1"/>
        <pt x="264" y="529" on="1"/>
        <pt x="274" y="577" on="0"/>
        <pt x="338" y="629" on="0"/>
        <pt x="386" y="629" on="1"/>
        <pt x="469" y="629" on="0"/>
        <pt x="559" y="462" on="0"/>
        <pt x="559" y="307" on="1"/>
        <pt x="559" y="152" on="0"/>
        <pt x="469" y="-16" on="0"/>
        <pt x="386" y="-16" on="1"/>
      </contour>
      <contour>
        <pt x="217" y="214" on="0"/>
        <pt x="266" y="119" on="0"/>
        <pt x="313" y="119" on="1"/>
        <pt x="408" y="119" on="0"/>
        <pt x="408" y="307" on="1"/>
        <pt x="408" y="494" on="0"/>
        <pt x="313" y="494" on="1"/>
        <pt x="266" y="494" on="0"/>
        <pt x="217" y="400" on="0"/>
        <pt x="217" y="307" on="1"/>
      </contour>
    </TTGlyph>
    <TTGlyph name="backslash" xMin="87" yMin="-170" xMax="513" yMax="848">
      <contour>
        <pt x="234" y="848" on="1"/>
        <pt x="513" y="-170" on="1"/>
        <pt x="366" y="-170" on="1"/>
        <pt x="87" y="848" on="1"/>
      </contour>
    </TTGlyph>
    <TTGlyph name="bar" xMin="235" yMin="-60" xMax="365" yMax="860">
      <contour>
        <pt x="365" y="-60" on="1"/>
        <pt x="235" y="-60" on="1"/>
        <pt x="235" y="860" on="1"/>
        <pt x="365" y="860" on="1"/>
      </contour>
    </TTGlyph>
    <TTGlyph name="braceleft" xMin="181" yMin="-201" xMax="496" yMax="961">
      <contour>
        <pt x="450" y="816" on="0"/>
        <pt x="401" y="755" on="0"/>
        <pt x="401" y="702" on="1"/>
        <pt x="401" y="675" on="0"/>
        <pt x="407" y="621" on="1"/>
        <pt x="414" y="572" on="0"/>
        <pt x="414" y="532" on="1"/>
        <pt x="414" y="466" on="0"/>
        <pt x="351" y="392" on="0"/>
        <pt x="290" y="387" on="1"/>
        <pt x="290" y="373" on="1"/>
        <pt x="351" y="368" on="0"/>
        <pt x="414" y="294" on="0"/>
        <pt x="414" y="228" on="1"/>
        <pt x="414" y="188" on="0"/>
        <pt x="407" y="139" on="1"/>
        <pt x="401" y="85" on="0"/>
        <pt x="401" y="58" on="1"/>
        <pt x="401" y="5" on="0"/>
        <pt x="450" y="-56" on="0"/>
        <pt x="496" y="-61" on="1"/>
        <pt x="496" y="-201" on="1"/>
        <pt x="380" y="-196" on="0"/>
        <pt x="248" y="-64" on="0"/>
        <pt x="248" y="49" on="1"/>
        <pt x="248" y="77" on="0"/>
        <pt x="254" y="129" on="0"/>
        <pt x="255" y="135" on="1"/>
        <pt x="261" y="181" on="0"/>
        <pt x="261" y="203" on="1"/>
        <pt x="261" y="256" on="0"/>
        <pt x="223" y="303" on="0"/>
        <pt x="181" y="302" on="1"/>
        <pt x="181" y="458" on="1"/>
        <pt x="223" y="457" on="0"/>
        <pt x="261" y="504" on="0"/>
        <pt x="261" y="557" on="1"/>
        <pt x="261" y="579" on="0"/>
        <pt x="255" y="625" on="1"/>
        <pt x="254" y="631" on="0"/>
        <pt x="248" y="683" on="0"/>
        <pt x="248" y="711" on="1"/>
        <pt x="248" y="824" on="0"/>
        <pt x="380" y="956" on="0"/>
        <pt x="496" y="961" on="1"/>
        <pt x="496" y="821" on="1"/>
      </contour>
    </TTGlyph>
    <TTGlyph name="braceright" xMin="104" yMin="-201" xMax="419" yMax="961">
      <contour>
        <pt x="220" y="956" on="0"/>
        <pt x="352" y="824" on="0"/>
        <pt x="352" y="711" on="1"/>
        <pt x="352" y="683" on="0"/>
        <pt x="346" y="631" on="0"/>
        <pt x="345" y="625" on="1"/>
        <pt x="339" y="579" on="0"/>
        <pt x="339" y="557" on="1"/>
        <pt x="339" y="504" on="0"/>
        <pt x="377" y="457" on="0"/>
        <pt x="419" y="458" on="1"/>
        <pt x="419" y="302" on="1"/>
        <pt x="377" y="303" on="0"/>
        <pt x="339" y="256" on="0"/>
        <pt x="339" y="203" on="1"/>
        <pt x="339" y="181" on="0"/>
        <pt x="345" y="135" on="1"/>
        <pt x="346" y="129" on="0"/>
        <pt x="352" y="77" on="0"/>
        <pt x="352" y="49" on="1"/>
        <pt x="352" y="-64" on="0"/>
        <pt x="220" y="-196" on="0"/>
        <pt x="104" y="-201" on="1"/>
        <pt x="104" y="-61" on="1"/>
        <pt x="150" y="-56" on="0"/>
        <pt x="199" y="5" on="0"/>
        <pt x="199" y="58" on="1"/>
        <pt x="199" y="85" on="0"/>
        <pt x="193" y="139" on="1"/>
        <pt x="186" y="188" on="0"/>
        <pt x="186" y="228" on="1"/>
        <pt x="186" y="294" on="0"/>
        <pt x="249" y="368" on="0"/>
        <pt x="310" y="373" on="1"/>
        <pt x="310" y="387" on="1"/>
        <pt x="249" y="392" on="0"/>
        <pt x="186" y="466" on="0"/>
        <pt x="186" y="532" on="1"/>
        <pt x="186" y="572" on="0"/>
        <pt x="193" y="621" on="1"/>
        <pt x="199" y="675" on="0"/>
        <pt x="199" y="702" on="1"/>
        <pt x="199" y="755" on="0"/>
        <pt x="150" y="816" on="0"/>
        <pt x="104" y="821" on="1"/>
        <pt x="104" y="961" on="1"/>
      </contour>
    </TTGlyph>
    <TTGlyph name="bracketleft" xMin="233" yMin="-183" xMax="496" yMax="943">
      <contour>
        <pt x="496" y="809" on="1"/>
        <pt x="380" y="809" on="1"/>
        <pt x="380" y="-49" on="1"/>
        <pt x="496" y="-49" on="1"/>
        <pt x="496" y="-183" on="1"/>
        <pt x="233" y="-183" on="1"/>
        <pt x="233" y="943" on="1"/>
        <pt x="496" y="943" on="1"/>
      </contour>
    </TTGlyph>
    <TTGlyph name="bracketright" xMin="104" yMin="-183" xMax="367" yMax="943">
      <contour>
        <pt x="367" y="943" on="1"/>
        <pt x="367" y="-183" on="1"/>
        <pt x="104" y="-183" on="1"/>
        <pt x="104" y="-49" on="1"/>
        <pt x="220" y="-49" on="1"/>
        <pt x="220" y="809" on="1"/>
        <pt x="104" y="809" on="1"/>
        <pt x="104" y="943" on="1"/>
      </contour>
    </TTGlyph>
    <TTGlyph name="bullet" xMin="92" yMin="142" xMax="508" yMax="558">
      <contour>
        <pt x="197" y="142" on="0"/>
        <pt x="92" y="247" on="0"/>
        <pt x="92" y="350" on="1"/>
        <pt x="92" y="453" on="0"/>
        <pt x="197" y="558" on="0"/>
        <pt x="300" y="558" on="1"/>
        <pt x="403" y="558" on="0"/>
        <pt x="508" y="453" on="0"/>
        <pt x="508" y="350" on="1"/>
        <pt x="508" y="247" on="0"/>
        <pt x="403" y="142" on="0"/>
        <pt x="300" y="142" on="1"/>
      </contour>
    </TTGlyph>
    <TTGlyph name="c" xMin="69" yMin="-19" xMax="549" yMax="632">
      <contour>
        <pt x="196" y="-19" on="0"/>
        <pt x="69" y="149" on="0"/>
        <pt x="69" y="304" on="1"/>
        <pt x="69" y="461" on="0"/>
        <pt x="200" y="632" on="0"/>
        <pt x="320" y="632" on="1"/>
        <pt x="423" y="632" on="0"/>
        <pt x="543" y="491" on="0"/>
        <pt x="549" y="363" on="1"/>
        <pt x="407" y="363" on="1"/>
        <pt x="403" y="428" on="0"/>
        <pt x="359" y="496" on="0"/>
        <pt x="319" y="496" on="1"/>
        <pt x="269" y="496" on="0"/>
        <pt x="218" y="399" on="0"/>
        <pt x="218" y="304" on="1"/>
        <pt x="218" y="118" on="0"/>
        <pt x="313" y="118" on="1"/>
        <pt x="388" y="118" on="0"/>
        <pt x="397" y="230" on="1"/>
        <pt x="539" y="230" on="1"/>
        <pt x="532" y="112" on="0"/>
        <pt x="413" y="-19" on="0"/>
        <pt x="313" y="-19" on="1"/>
      </contour>
    </TTGlyph>
    <TTGlyph name="cent" xMin="69" yMin="-93" xMax="549" yMax="707">
      <contour>
        <pt x="379" y="707" on="1"/>
        <pt x="379" y="625" on="1"/>
        <pt x="456" y="606" on="0"/>
        <pt x="544" y="471" on="0"/>
        <pt x="549" y="363" on="1"/>
        <pt x="407" y="363" on="1"/>
        <pt x="403" y="428" on="0"/>
        <pt x="359" y="496" on="0"/>
        <pt x="319" y="496" on="1"/>
        <pt x="269" y="496" on="0"/>
        <pt x="218" y="399" on="0"/>
        <pt x="218" y="304" on="1"/>
        <pt x="218" y="118" on="0"/>
        <pt x="313" y="118" on="1"/>
        <pt x="388" y="118" on="0"/>
        <pt x="397" y="230" on="1"/>
        <pt x="539" y="230" on="1"/>
        <pt x="533" y="133" on="0"/>
        <pt x="450" y="9" on="0"/>
        <pt x="379" y="-11" on="1"/>
        <pt x="379" y="-93" on="1"/>
        <pt x="247" y="-93" on="1"/>
        <pt x="247" y="-11" on="1"/>
        <pt x="161" y="11" on="0"/>
        <pt x="69" y="173" on="0"/>
        <pt x="69" y="304" on="1"/>
        <pt x="69" y="435" on="0"/>
        <pt x="161" y="599" on="0"/>
        <pt x="247" y="623" on="1"/>
        <pt x="247" y="707" on="1"/>
      </contour>
    </TTGlyph>
    <TTGlyph name="cent.bold" xMin="69" yMin="-93" xMax="549" yMax="707">
      <contour>
        <pt x="270" y="-16" on="1"/>
        <pt x="173" y="-1" on="0"/>
        <pt x="69" y="165" on="0"/>
        <pt x="69" y="304" on="1"/>
        <pt x="69" y="443" on="0"/>
        <pt x="173" y="611" on="0"/>
        <pt x="270" y="628" on="1"/>
        <pt x="270" y="707" on="1"/>
        <pt x="358" y="707" on="1"/>
        <pt x="358" y="629" on="1"/>
        <pt x="444" y="616" on="0"/>
        <pt x="544" y="478" on="0"/>
        <pt x="549" y="363" on="1"/>
        <pt x="407" y="363" on="1"/>
        <pt x="401" y="458" on="0"/>
        <pt x="358" y="485" on="1"/>
        <pt x="358" y="132" on="1"/>
        <pt x="391" y="159" on="0"/>
        <pt x="397" y="230" on="1"/>
        <pt x="539" y="230" on="1"/>
        <pt x="532" y="126" on="0"/>
        <pt x="438" y="-2" on="0"/>
        <pt x="358" y="-15" on="1"/>
        <pt x="358" y="-93" on="1"/>
        <pt x="270" y="-93" on="1"/>
      </contour>
      <contour>
        <pt x="218" y="167" on="0"/>
        <pt x="270" y="131" on="1"/>
        <pt x="270" y="480" on="1"/>
        <pt x="218" y="441" on="0"/>
        <pt x="218" y="304" on="1"/>
      </contour>
    </TTGlyph>
    <TTGlyph name="colon" xMin="191" yMin="-11" xMax="409" yMax="624">
      <component glyphName="period" x="0" y="0" flags="0x0"/>
      <component glyphName="period" x="0" y="377" flags="0x4"/>
    </TTGlyph>
    <TTGlyph name="colon.case" xMin="191" yMin="82" xMax="409" yMax="717">
      <component glyphName="colon" x="0" y="93" flags="0x4"/>
    </TTGlyph>
    <TTGlyph name="comma" xMin="184" yMin="-187" xMax="421" yMax="247">
      <contour>
        <pt x="246" y="-11" on="0"/>
        <pt x="191" y="54" on="0"/>
        <pt x="191" y="118" on="1"/>
        <pt x="191" y="182" on="0"/>
        <pt x="246" y="247" on="0"/>
        <pt x="300" y="247" on="1"/>
        <pt x="421" y="247" on="0"/>
        <pt x="421" y="91" on="1"/>
        <pt x="421" y="-64" on="0"/>
        <pt x="346" y="-187" on="1"/>
        <pt x="184" y="-187" on="1"/>
        <pt x="294" y="-109" on="0"/>
        <pt x="321" y="-10" on="1"/>
        <pt x="314" y="-11" on="0"/>
        <pt x="300" y="-11" on="1"/>
      </contour>
    </TTGlyph>
    <TTGlyph name="copyright" xMin="32" yMin="84" xMax="568" yMax="716">
      <contour>
        <pt x="219" y="84" on="0"/>
        <pt x="98" y="161" on="0"/>
        <pt x="32" y="304" on="0"/>
        <pt x="32" y="400" on="1"/>
        <pt x="32" y="496" on="0"/>
        <pt x="98" y="639" on="0"/>
        <pt x="219" y="716" on="0"/>
        <pt x="300" y="716" on="1"/>
        <pt x="381" y="716" on="0"/>
        <pt x="502" y="639" on="0"/>
        <pt x="568" y="496" on="0"/>
        <pt x="568" y="400" on="1"/>
        <pt x="568" y="304" on="0"/>
        <pt x="502" y="161" on="0"/>
        <pt x="381" y="84" on="0"/>
        <pt x="300" y="84" on="1"/>
      </contour>
      <contour>
        <pt x="129" y="295" on="0"/>
        <pt x="219" y="178" on="0"/>
        <pt x="300" y="178" on="1"/>
        <pt x="381" y="178" on="0"/>
        <pt x="471" y="295" on="0"/>
        <pt x="471" y="400" on="1"/>
        <pt x="471" y="505" on="0"/>
        <pt x="381" y="622" on="0"/>
        <pt x="300" y="622" on="1"/>
        <pt x="219" y="622" on="0"/>
        <pt x="129" y="505" on="0"/>
        <pt x="129" y="400" on="1"/>
      </contour>
      <contour>
        <pt x="167" y="482" on="0"/>
        <pt x="239" y="573" on="0"/>
        <pt x="304" y="573" on="1"/>
        <pt x="360" y="573" on="0"/>
        <pt x="427" y="500" on="0"/>
        <pt x="434" y="430" on="1"/>
        <pt x="339" y="430" on="1"/>
        <pt x="335" y="481" on="0"/>
        <pt x="302" y="481" on="1"/>
        <pt x="263" y="481" on="0"/>
        <pt x="263" y="400" on="1"/>
        <pt x="263" y="362" on="0"/>
        <pt x="283" y="322" on="0"/>
        <pt x="301" y="322" on="1"/>
        <pt x="327" y="322" on="0"/>
        <pt x="331" y="363" on="1"/>
        <pt x="427" y="363" on="1"/>
        <pt x="423" y="302" on="0"/>
        <pt x="356" y="230" on="0"/>
        <pt x="303" y="230" on="1"/>
        <pt x="241" y="230" on="0"/>
        <pt x="167" y="322" on="0"/>
        <pt x="167" y="400" on="1"/>
      </contour>
    </TTGlyph>
    <TTGlyph name="currency" xMin="27" yMin="77" xMax="573" yMax="623">
      <contour>
        <pt x="239" y="117" on="0"/>
        <pt x="188" y="145" on="1"/>
        <pt x="120" y="77" on="1"/>
        <pt x="27" y="170" on="1"/>
        <pt x="95" y="238" on="1"/>
        <pt x="67" y="289" on="0"/>
        <pt x="67" y="350" on="1"/>
        <pt x="67" y="411" on="0"/>
        <pt x="95" y="462" on="1"/>
        <pt x="27" y="530" on="1"/>
        <pt x="120" y="623" on="1"/>
        <pt x="188" y="555" on="1"/>
        <pt x="239" y="583" on="0"/>
        <pt x="300" y="583" on="1"/>
        <pt x="361" y="583" on="0"/>
        <pt x="412" y="555" on="1"/>
        <pt x="480" y="623" on="1"/>
        <pt x="573" y="530" on="1"/>
        <pt x="505" y="462" on="1"/>
        <pt x="533" y="411" on="0"/>
        <pt x="533" y="350" on="1"/>
        <pt x="533" y="289" on="0"/>
        <pt x="505" y="238" on="1"/>
        <pt x="573" y="170" on="1"/>
        <pt x="480" y="77" on="1"/>
        <pt x="412" y="145" on="1"/>
        <pt x="361" y="117" on="0"/>
        <pt x="300" y="117" on="1"/>
      </contour>
      <contour>
        <pt x="203" y="310" on="0"/>
        <pt x="260" y="253" on="0"/>
        <pt x="300" y="253" on="1"/>
        <pt x="341" y="253" on="0"/>
        <pt x="397" y="310" on="0"/>
        <pt x="397" y="350" on="1"/>
        <pt x="397" y="391" on="0"/>
        <pt x="341" y="447" on="0"/>
        <pt x="300" y="447" on="1"/>
        <pt x="260" y="447" on="0"/>
        <pt x="203" y="391" on="0"/>
        <pt x="203" y="350" on="1"/>
      </contour>
    </TTGlyph>
    <TTGlyph name="d" xMin="41" yMin="-16" xMax="529" yMax="848">
      <contour>
        <pt x="131" y="-16" on="0"/>
        <pt x="41" y="152" on="0"/>
        <pt x="41" y="307" on="1"/>
        <pt x="41" y="462" on="0"/>
        <pt x="131" y="629" on="0"/>
        <pt x="214" y="629" on="1"/>
        <pt x="262" y="629" on="0"/>
        <pt x="326" y="577" on="0"/>
        <pt x="336" y="529" on="1"/>
        <pt x="373" y="529" on="1"/>
        <pt x="373" y="848" on="1"/>
        <pt x="529" y="848" on="1"/>
        <pt x="529" y="0" on="1"/>
        <pt x="373" y="0" on="1"/>
        <pt x="373" y="84" on="1"/>
        <pt x="336" y="84" on="1"/>
        <pt x="326" y="36" on="0"/>
        <pt x="262" y="-16" on="0"/>
        <pt x="214" y="-16" on="1"/>
      </contour>
      <contour>
        <pt x="192" y="119" on="0"/>
        <pt x="287" y="119" on="1"/>
        <pt x="334" y="119" on="0"/>
        <pt x="383" y="214" on="0"/>
        <pt x="383" y="307" on="1"/>
        <pt x="383" y="400" on="0"/>
        <pt x="334" y="494" on="0"/>
        <pt x="287" y="494" on="1"/>
        <pt x="192" y="494" on="0"/>
        <pt x="192" y="307" on="1"/>
      </contour>
    </TTGlyph>
    <TTGlyph name="divide" xMin="54" yMin="67" xMax="546" yMax="633">
      <component glyphName="minus" x="0" y="0" flags="0x0"/>
      <component glyphName="uni0307" x="216" y="-239" flags="0x4"/>
      <component glyphName="uni0307" x="216" y="-625" flags="0x4"/>
    </TTGlyph>
    <TTGlyph name="divide.case" xMin="54" yMin="117" xMax="546" yMax="683">
      <component glyphName="divide" x="0" y="50" flags="0x4"/>
    </TTGlyph>
    <TTGlyph name="dollar" xMin="55" yMin="-100" xMax="559" yMax="900">
      <contour>
        <pt x="218" y="176" on="0"/>
        <pt x="263" y="136" on="0"/>
        <pt x="304" y="136" on="1"/>
        <pt x="341" y="136" on="0"/>
        <pt x="381" y="185" on="0"/>
        <pt x="381" y="231" on="1"/>
        <pt x="381" y="267" on="0"/>
        <pt x="351" y="307" on="0"/>
        <pt x="319" y="313" on="1"/>
        <pt x="273" y="322" on="1"/>
        <pt x="64" y="363" on="0"/>
        <pt x="64" y="566" on="1"/>
        <pt x="64" y="664" on="0"/>
        <pt x="156" y="792" on="0"/>
        <pt x="240" y="812" on="1"/>
        <pt x="240" y="900" on="1"/>
        <pt x="373" y="900" on="1"/>
        <pt x="373" y="813" on="1"/>
        <pt x="458" y="797" on="0"/>
        <pt x="552" y="670" on="0"/>
        <pt x="559" y="563" on="1"/>
        <pt x="401" y="563" on="1"/>
        <pt x="396" y="614" on="0"/>
        <pt x="351" y="664" on="0"/>
        <pt x="309" y="664" on="1"/>
        <pt x="269" y="664" on="0"/>
        <pt x="227" y="614" on="0"/>
        <pt x="227" y="568" on="1"/>
        <pt x="227" y="497" on="0"/>
        <pt x="289" y="485" on="1"/>
        <pt x="335" y="477" on="1"/>
        <pt x="544" y="436" on="0"/>
        <pt x="544" y="232" on="1"/>
        <pt x="544" y="134" on="0"/>
        <pt x="454" y="8" on="0"/>
        <pt x="373" y="-11" on="1"/>
        <pt x="373" y="-100" on="1"/>
        <pt x="240" y="-100" on="1"/>
        <pt x="240" y="-14" on="1"/>
        <pt x="157" y="2" on="0"/>
        <pt x="64" y="118" on="0"/>
        <pt x="55" y="217" on="1"/>
        <pt x="214" y="217" on="1"/>
      </contour>
    </TTGlyph>
    <TTGlyph name="dollar.bold" xMin="55" yMin="-100" xMax="559" yMax="900">
      <contour>
        <pt x="218" y="178" on="0"/>
        <pt x="240" y="156" on="1"/>
        <pt x="240" y="330" on="1"/>
        <pt x="64" y="380" on="0"/>
        <pt x="64" y="566" on="1"/>
        <pt x="64" y="664" on="0"/>
        <pt x="156" y="792" on="0"/>
        <pt x="240" y="812" on="1"/>
        <pt x="240" y="900" on="1"/>
        <pt x="373" y="900" on="1"/>
        <pt x="373" y="813" on="1"/>
        <pt x="458" y="797" on="0"/>
        <pt x="552" y="670" on="0"/>
        <pt x="559" y="563" on="1"/>
        <pt x="401" y="563" on="1"/>
        <pt x="395" y="616" on="0"/>
        <pt x="373" y="639" on="1"/>
        <pt x="373" y="468" on="1"/>
        <pt x="544" y="417" on="0"/>
        <pt x="544" y="232" on="1"/>
        <pt x="544" y="134" on="0"/>
        <pt x="454" y="8" on="0"/>
        <pt x="373" y="-11" on="1"/>
        <pt x="373" y="-100" on="1"/>
        <pt x="240" y="-100" on="1"/>
        <pt x="240" y="-14" on="1"/>
        <pt x="157" y="2" on="0"/>
        <pt x="64" y="118" on="0"/>
        <pt x="55" y="217" on="1"/>
        <pt x="214" y="217" on="1"/>
      </contour>
      <contour>
        <pt x="227" y="534" on="0"/>
        <pt x="240" y="515" on="1"/>
        <pt x="240" y="627" on="1"/>
        <pt x="227" y="605" on="0"/>
        <pt x="227" y="568" on="1"/>
      </contour>
      <contour>
        <pt x="381" y="203" on="0"/>
        <pt x="381" y="231" on="1"/>
        <pt x="381" y="256" on="0"/>
        <pt x="373" y="275" on="1"/>
        <pt x="373" y="182" on="1"/>
      </contour>
    </TTGlyph>
    <TTGlyph name="dotlessi" xMin="102" yMin="0" xMax="555" yMax="613">
      <contour>
        <pt x="406" y="613" on="1"/>
        <pt x="406" y="136" on="1"/>
        <pt x="555" y="136" on="1"/>
        <pt x="555" y="0" on="1"/>
        <pt x="102" y="0" on="1"/>
        <pt x="102" y="136" on="1"/>
        <pt x="250" y="136" on="1"/>
        <pt x="250" y="477" on="1"/>
        <pt x="102" y="477" on="1"/>
        <pt x="102" y="613" on="1"/>
      </contour>
    </TTGlyph>
    <TTGlyph name="e" xMin="66" yMin="-19" xMax="544" yMax="632">
      <contour>
        <pt x="66" y="464" on="0"/>
        <pt x="191" y="632" on="0"/>
        <pt x="307" y="632" on="1"/>
        <pt x="419" y="632" on="0"/>
        <pt x="532" y="472" on="0"/>
        <pt x="532" y="314" on="1"/>
        <pt x="532" y="277" on="0"/>
        <pt x="528" y="252" on="1"/>
        <pt x="214" y="252" on="1"/>
        <pt x="221" y="183" on="0"/>
        <pt x="269" y="116" on="0"/>
        <pt x="312" y="116" on="1"/>
        <pt x="343" y="116" on="0"/>
        <pt x="386" y="153" on="0"/>
        <pt x="400" y="191" on="1"/>
        <pt x="544" y="191" on="1"/>
        <pt x="521" y="87" on="0"/>
        <pt x="403" y="-19" on="0"/>
        <pt x="309" y="-19" on="1"/>
        <pt x="188" y="-19" on="0"/>
        <pt x="66" y="147" on="0"/>
        <pt x="66" y="310" on="1"/>
      </contour>
      <contour>
        <pt x="392" y="373" on="1"/>
        <pt x="386" y="437" on="0"/>
        <pt x="344" y="498" on="0"/>
        <pt x="307" y="498" on="1"/>
        <pt x="269" y="498" on="0"/>
        <pt x="222" y="434" on="0"/>
        <pt x="215" y="373" on="1"/>
      </contour>
    </TTGlyph>
    <TTGlyph name="eight" xMin="28" yMin="-19" xMax="572" yMax="819">
      <contour>
        <pt x="347" y="473" on="0"/>
        <pt x="400" y="523" on="0"/>
        <pt x="400" y="568" on="1"/>
        <pt x="400" y="613" on="0"/>
        <pt x="347" y="663" on="0"/>
        <pt x="300" y="663" on="1"/>
        <pt x="253" y="663" on="0"/>
        <pt x="200" y="613" on="0"/>
        <pt x="200" y="568" on="1"/>
        <pt x="200" y="523" on="0"/>
        <pt x="253" y="473" on="0"/>
        <pt x="300" y="473" on="1"/>
      </contour>
      <contour>
        <pt x="28" y="278" on="0"/>
        <pt x="99" y="371" on="0"/>
        <pt x="162" y="382" on="1"/>
        <pt x="162" y="419" on="1"/>
        <pt x="101" y="430" on="0"/>
        <pt x="32" y="523" on="0"/>
        <pt x="32" y="593" on="1"/>
        <pt x="32" y="698" on="0"/>
        <pt x="175" y="819" on="0"/>
        <pt x="300" y="819" on="1"/>
        <pt x="425" y="819" on="0"/>
        <pt x="568" y="698" on="0"/>
        <pt x="568" y="593" on="1"/>
        <pt x="568" y="523" on="0"/>
        <pt x="499" y="430" on="0"/>
        <pt x="438" y="419" on="1"/>
        <pt x="438" y="382" on="1"/>
        <pt x="501" y="371" on="0"/>
        <pt x="572" y="278" on="0"/>
        <pt x="572" y="207" on="1"/>
        <pt x="572" y="102" on="0"/>
        <pt x="427" y="-19" on="0"/>
        <pt x="300" y="-19" on="1"/>
        <pt x="173" y="-19" on="0"/>
        <pt x="28" y="102" on="0"/>
        <pt x="28" y="207" on="1"/>
      </contour>
      <contour>
        <pt x="196" y="187" on="0"/>
        <pt x="251" y="137" on="0"/>
        <pt x="300" y="137" on="1"/>
        <pt x="349" y="137" on="0"/>
        <pt x="404" y="187" on="0"/>
        <pt x="404" y="233" on="1"/>
        <pt x="404" y="278" on="0"/>
        <pt x="349" y="328" on="0"/>
        <pt x="300" y="328" on="1"/>
        <pt x="251" y="328" on="0"/>
        <pt x="196" y="278" on="0"/>
        <pt x="196" y="233" on="1"/>
      </contour>
    </TTGlyph>
    <TTGlyph name="ellipsis" xMin="31" yMin="-11" xMax="570" yMax="247">
      <contour>
        <pt x="264" y="-11" on="0"/>
        <pt x="227" y="54" on="0"/>
        <pt x="227" y="118" on="1"/>
        <pt x="227" y="182" on="0"/>
        <pt x="264" y="247" on="0"/>
        <pt x="300" y="247" on="1"/>
        <pt x="374" y="247" on="0"/>
        <pt x="374" y="118" on="1"/>
        <pt x="374" y="-11" on="0"/>
        <pt x="300" y="-11" on="1"/>
      </contour>
      <contour>
        <pt x="31" y="182" on="0"/>
        <pt x="68" y="247" on="0"/>
        <pt x="104" y="247" on="1"/>
        <pt x="178" y="247" on="0"/>
        <pt x="178" y="118" on="1"/>
        <pt x="178" y="-11" on="0"/>
        <pt x="104" y="-11" on="1"/>
        <pt x="68" y="-11" on="0"/>
        <pt x="31" y="54" on="0"/>
        <pt x="31" y="118" on="1"/>
      </contour>
      <contour>
        <pt x="423" y="182" on="0"/>
        <pt x="460" y="247" on="0"/>
        <pt x="496" y="247" on="1"/>
        <pt x="570" y="247" on="0"/>
        <pt x="570" y="118" on="1"/>
        <pt x="570" y="-11" on="0"/>
        <pt x="496" y="-11" on="1"/>
        <pt x="460" y="-11" on="0"/>
        <pt x="423" y="54" on="0"/>
        <pt x="423" y="118" on="1"/>
      </contour>
    </TTGlyph>
    <TTGlyph name="emdash" xMin="20" yMin="284" xMax="580" yMax="416">
      <contour>
        <pt x="580" y="416" on="1"/>
        <pt x="580" y="284" on="1"/>
        <pt x="20" y="284" on="1"/>
        <pt x="20" y="416" on="1"/>
      </contour>
    </TTGlyph>
    <TTGlyph name="emdash.case" xMin="20" yMin="334" xMax="580" yMax="466">
      <component glyphName="emdash" x="0" y="50" flags="0x4"/>
    </TTGlyph>
    <TTGlyph name="endash" xMin="39" yMin="284" xMax="561" yMax="416">
      <contour>
        <pt x="561" y="416" on="1"/>
        <pt x="561" y="284" on="1"/>
        <pt x="39" y="284" on="1"/>
        <pt x="39" y="416" on="1"/>
      </contour>
    </TTGlyph>
    <TTGlyph name="endash.case" xMin="39" yMin="334" xMax="561" yMax="466">
      <component glyphName="endash" x="0" y="50" flags="0x4"/>
    </TTGlyph>
    <TTGlyph name="equal" xMin="90" yMin="150" xMax="510" yMax="550">
      <contour>
        <pt x="90" y="550" on="1"/>
        <pt x="510" y="550" on="1"/>
        <pt x="510" y="410" on="1"/>
        <pt x="90" y="410" on="1"/>
      </contour>
      <contour>
        <pt x="90" y="290" on="1"/>
        <pt x="510" y="290" on="1"/>
        <pt x="510" y="150" on="1"/>
        <pt x="90" y="150" on="1"/>
      </contour>
    </TTGlyph>
    <TTGlyph name="equal.case" xMin="90" yMin="200" xMax="510" yMax="600">
      <component glyphName="equal" x="0" y="50" flags="0x4"/>
    </TTGlyph>
    <TTGlyph name="exclam" xMin="196" yMin="-9" xMax="405" yMax="800">
      <contour>
        <pt x="381" y="800" on="1"/>
        <pt x="381" y="263" on="1"/>
        <pt x="219" y="263" on="1"/>
        <pt x="219" y="800" on="1"/>
      </contour>
      <contour>
        <pt x="196" y="209" on="0"/>
        <pt x="300" y="209" on="1"/>
        <pt x="352" y="209" on="0"/>
        <pt x="405" y="154" on="0"/>
        <pt x="405" y="100" on="1"/>
        <pt x="405" y="46" on="0"/>
        <pt x="352" y="-9" on="0"/>
        <pt x="300" y="-9" on="1"/>
        <pt x="196" y="-9" on="0"/>
        <pt x="196" y="100" on="1"/>
      </contour>
    </TTGlyph>
    <TTGlyph name="f" xMin="85" yMin="0" xMax="608" yMax="867">
      <contour>
        <pt x="199" y="0" on="1"/>
        <pt x="199" y="477" on="1"/>
        <pt x="85" y="477" on="1"/>
        <pt x="85" y="613" on="1"/>
        <pt x="199" y="613" on="1"/>
        <pt x="199" y="673" on="1"/>
        <pt x="199" y="767" on="0"/>
        <pt x="304" y="867" on="0"/>
        <pt x="402" y="867" on="1"/>
        <pt x="496" y="867" on="0"/>
        <pt x="602" y="769" on="0"/>
        <pt x="608" y="677" on="1"/>
        <pt x="458" y="677" on="1"/>
        <pt x="454" y="733" on="0"/>
        <pt x="404" y="733" on="1"/>
        <pt x="355" y="733" on="0"/>
        <pt x="355" y="673" on="1"/>
        <pt x="355" y="613" on="1"/>
        <pt x="536" y="613" on="1"/>
        <pt x="536" y="477" on="1"/>
        <pt x="355" y="477" on="1"/>
        <pt x="355" y="0" on="1"/>
      </contour>
    </TTGlyph>
    <TTGlyph name="five" xMin="40" yMin="-19" xMax="558" yMax="800">
      <contour>
        <pt x="542" y="800" on="1"/>
        <pt x="542" y="644" on="1"/>
        <pt x="228" y="644" on="1"/>
        <pt x="228" y="479" on="1"/>
        <pt x="264" y="479" on="1"/>
        <pt x="273" y="516" on="0"/>
        <pt x="325" y="554" on="0"/>
        <pt x="365" y="554" on="1"/>
        <pt x="459" y="554" on="0"/>
        <pt x="558" y="411" on="0"/>
        <pt x="558" y="277" on="1"/>
        <pt x="558" y="134" on="0"/>
        <pt x="428" y="-19" on="0"/>
        <pt x="304" y="-19" on="1"/>
        <pt x="184" y="-19" on="0"/>
        <pt x="48" y="122" on="0"/>
        <pt x="40" y="253" on="1"/>
        <pt x="214" y="253" on="1"/>
        <pt x="218" y="197" on="0"/>
        <pt x="265" y="137" on="0"/>
        <pt x="304" y="137" on="1"/>
        <pt x="346" y="137" on="0"/>
        <pt x="390" y="209" on="0"/>
        <pt x="390" y="277" on="1"/>
        <pt x="390" y="341" on="0"/>
        <pt x="347" y="408" on="0"/>
        <pt x="307" y="408" on="1"/>
        <pt x="277" y="408" on="0"/>
        <pt x="231" y="369" on="0"/>
        <pt x="218" y="334" on="1"/>
        <pt x="65" y="334" on="1"/>
        <pt x="64" y="800" on="1"/>
      </contour>
    </TTGlyph>
    <TTGlyph name="four" xMin="26" yMin="0" xMax="584" yMax="800">
      <contour>
        <pt x="484" y="360" on="1"/>
        <pt x="584" y="360" on="1"/>
        <pt x="584" y="204" on="1"/>
        <pt x="484" y="204" on="1"/>
        <pt x="484" y="0" on="1"/>
        <pt x="321" y="0" on="1"/>
        <pt x="321" y="204" on="1"/>
        <pt x="26" y="204" on="1"/>
        <pt x="26" y="400" on="1"/>
        <pt x="215" y="800" on="1"/>
        <pt x="484" y="800" on="1"/>
      </contour>
      <contour>
        <pt x="321" y="360" on="1"/>
        <pt x="321" y="677" on="1"/>
        <pt x="167" y="360" on="1"/>
      </contour>
    </TTGlyph>
    <TTGlyph name="g" xMin="48" yMin="-219" xMax="528" yMax="629">
      <contour>
        <pt x="528" y="-86" on="0"/>
        <pt x="405" y="-219" on="0"/>
        <pt x="290" y="-219" on="1"/>
        <pt x="183" y="-219" on="0"/>
        <pt x="57" y="-121" on="0"/>
        <pt x="48" y="-30" on="1"/>
        <pt x="212" y="-30" on="1"/>
        <pt x="217" y="-56" on="0"/>
        <pt x="256" y="-84" on="0"/>
        <pt x="290" y="-84" on="1"/>
        <pt x="330" y="-84" on="0"/>
        <pt x="372" y="-23" on="0"/>
        <pt x="372" y="36" on="1"/>
        <pt x="372" y="135" on="1"/>
        <pt x="336" y="135" on="1"/>
        <pt x="326" y="90" on="0"/>
        <pt x="267" y="43" on="0"/>
        <pt x="223" y="43" on="1"/>
        <pt x="140" y="43" on="0"/>
        <pt x="50" y="193" on="0"/>
        <pt x="50" y="333" on="1"/>
        <pt x="50" y="475" on="0"/>
        <pt x="140" y="629" on="0"/>
        <pt x="223" y="629" on="1"/>
        <pt x="267" y="629" on="0"/>
        <pt x="326" y="579" on="0"/>
        <pt x="337" y="531" on="1"/>
        <pt x="372" y="531" on="1"/>
        <pt x="372" y="613" on="1"/>
        <pt x="528" y="613" on="1"/>
        <pt x="528" y="36" on="1"/>
      </contour>
      <contour>
        <pt x="200" y="255" on="0"/>
        <pt x="247" y="173" on="0"/>
        <pt x="291" y="173" on="1"/>
        <pt x="335" y="173" on="0"/>
        <pt x="381" y="254" on="0"/>
        <pt x="381" y="333" on="1"/>
        <pt x="381" y="412" on="0"/>
        <pt x="335" y="494" on="0"/>
        <pt x="291" y="494" on="1"/>
        <pt x="247" y="494" on="0"/>
        <pt x="200" y="412" on="0"/>
        <pt x="200" y="333" on="1"/>
      </contour>
    </TTGlyph>
    <TTGlyph name="grave" xMin="110" yMin="527" xMax="489" yMax="848">
      <contour>
        <pt x="301" y="848" on="1"/>
        <pt x="489" y="527" on="1"/>
        <pt x="348" y="527" on="1"/>
        <pt x="110" y="848" on="1"/>
      </contour>
    </TTGlyph>
    <TTGlyph name="greater" xMin="74" yMin="33" xMax="526" yMax="667">
      <contour>
        <pt x="74" y="33" on="1"/>
        <pt x="74" y="184" on="1"/>
        <pt x="420" y="342" on="1"/>
        <pt x="420" y="358" on="1"/>
        <pt x="74" y="516" on="1"/>
        <pt x="74" y="667" on="1"/>
        <pt x="526" y="457" on="1"/>
        <pt x="526" y="243" on="1"/>
      </contour>
    </TTGlyph>
    <TTGlyph name="greater.case" xMin="74" yMin="83" xMax="526" yMax="717">
      <component glyphName="greater" x="0" y="50" flags="0x4"/>
    </TTGlyph>
    <TTGlyph name="guillemotleft" xMin="58" yMin="41" xMax="531" yMax="659">
      <contour>
        <pt x="58" y="256" on="1"/>
        <pt x="58" y="449" on="1"/>
        <pt x="293" y="659" on="1"/>
        <pt x="293" y="478" on="1"/>
        <pt x="148" y="354" on="1"/>
        <pt x="293" y="229" on="1"/>
        <pt x="293" y="41" on="1"/>
      </contour>
      <contour>
        <pt x="322" y="438" on="1"/>
        <pt x="531" y="628" on="1"/>
        <pt x="531" y="458" on="1"/>
        <pt x="411" y="353" on="1"/>
        <pt x="531" y="249" on="1"/>
        <pt x="531" y="73" on="1"/>
        <pt x="322" y="267" on="1"/>
      </contour>
    </TTGlyph>
    <TTGlyph name="guillemotright" xMin="69" yMin="41" xMax="542" yMax="659">
      <contour>
        <pt x="307" y="229" on="1"/>
        <pt x="452" y="354" on="1"/>
        <pt x="307" y="478" on="1"/>
        <pt x="307" y="659" on="1"/>
        <pt x="542" y="449" on="1"/>
        <pt x="542" y="256" on="1"/>
        <pt x="307" y="41" on="1"/>
      </contour>
      <contour>
        <pt x="69" y="249" on="1"/>
        <pt x="189" y="353" on="1"/>
        <pt x="69" y="458" on="1"/>
        <pt x="69" y="628" on="1"/>
        <pt x="278" y="438" on="1"/>
        <pt x="278" y="267" on="1"/>
        <pt x="69" y="73" on="1"/>
      </contour>
    </TTGlyph>
    <TTGlyph name="h" xMin="74" yMin="0" xMax="534" yMax="848">
      <contour>
        <pt x="230" y="848" on="1"/>
        <pt x="230" y="519" on="1"/>
        <pt x="267" y="519" on="1"/>
        <pt x="274" y="574" on="0"/>
        <pt x="338" y="632" on="0"/>
        <pt x="390" y="632" on="1"/>
        <pt x="458" y="632" on="0"/>
        <pt x="534" y="523" on="0"/>
        <pt x="534" y="425" on="1"/>
        <pt x="534" y="0" on="1"/>
        <pt x="378" y="0" on="1"/>
        <pt x="378" y="370" on="1"/>
        <pt x="378" y="428" on="0"/>
        <pt x="342" y="482" on="0"/>
        <pt x="304" y="482" on="1"/>
        <pt x="266" y="482" on="0"/>
        <pt x="230" y="428" on="0"/>
        <pt x="230" y="370" on="1"/>
        <pt x="230" y="0" on="1"/>
        <pt x="74" y="0" on="1"/>
        <pt x="74" y="848" on="1"/>
      </contour>
    </TTGlyph>
    <TTGlyph name="hyphen" xMin="54" yMin="280" xMax="546" yMax="420">
      <component glyphName="minus" x="0" y="0" flags="0x0"/>
    </TTGlyph>
    <TTGlyph name="hyphen.case" xMin="54" yMin="330" xMax="546" yMax="470">
      <component glyphName="minus.case" x="0" y="0" flags="0x0"/>
    </TTGlyph>
    <TTGlyph name="i" xMin="102" yMin="0" xMax="555" yMax="872">
      <component glyphName="dotlessi" x="0" y="0" flags="0x0"/>
      <component glyphName="uni0307" x="244" y="0" flags="0x0"/>
    </TTGlyph>
    <TTGlyph name="j" xMin="51" yMin="-219" xMax="486" yMax="872">
      <component glyphName="uni0237" x="0" y="0" flags="0x0"/>
      <component glyphName="uni0307" x="298" y="0" flags="0x0"/>
    </TTGlyph>
    <TTGlyph name="k" xMin="84" yMin="0" xMax="590" yMax="848">
      <contour>
        <pt x="240" y="848" on="1"/>
        <pt x="240" y="337" on="1"/>
        <pt x="420" y="613" on="1"/>
        <pt x="590" y="613" on="1"/>
        <pt x="378" y="301" on="1"/>
        <pt x="581" y="0" on="1"/>
        <pt x="402" y="0" on="1"/>
        <pt x="240" y="256" on="1"/>
        <pt x="240" y="0" on="1"/>
        <pt x="84" y="0" on="1"/>
        <pt x="84" y="848" on="1"/>
      </contour>
    </TTGlyph>
    <TTGlyph name="l" xMin="87" yMin="0" xMax="540" yMax="848">
      <contour>
        <pt x="391" y="848" on="1"/>
        <pt x="391" y="136" on="1"/>
        <pt x="540" y="136" on="1"/>
        <pt x="540" y="0" on="1"/>
        <pt x="87" y="0" on="1"/>
        <pt x="87" y="136" on="1"/>
        <pt x="235" y="136" on="1"/>
        <pt x="235" y="712" on="1"/>
        <pt x="87" y="712" on="1"/>
        <pt x="87" y="848" on="1"/>
      </contour>
    </TTGlyph>
    <TTGlyph name="less" xMin="74" yMin="33" xMax="526" yMax="667">
      <contour>
        <pt x="526" y="667" on="1"/>
        <pt x="526" y="516" on="1"/>
        <pt x="180" y="358" on="1"/>
        <pt x="180" y="342" on="1"/>
        <pt x="526" y="184" on="1"/>
        <pt x="526" y="33" on="1"/>
        <pt x="74" y="243" on="1"/>
        <pt x="74" y="457" on="1"/>
      </contour>
    </TTGlyph>
    <TTGlyph name="less.case" xMin="74" yMin="83" xMax="526" yMax="717">
      <contour>
        <pt x="526" y="717" on="1"/>
        <pt x="526" y="566" on="1"/>
        <pt x="180" y="408" on="1"/>
        <pt x="180" y="392" on="1"/>
        <pt x="526" y="234" on="1"/>
        <pt x="526" y="83" on="1"/>
        <pt x="74" y="293" on="1"/>
        <pt x="74" y="507" on="1"/>
      </contour>
    </TTGlyph>
    <TTGlyph name="m" xMin="41" yMin="0" xMax="563" yMax="632">
      <contour>
        <pt x="179" y="613" on="1"/>
        <pt x="179" y="527" on="1"/>
        <pt x="211" y="527" on="1"/>
        <pt x="217" y="632" on="0"/>
        <pt x="289" y="632" on="1"/>
        <pt x="356" y="632" on="0"/>
        <pt x="368" y="527" on="1"/>
        <pt x="397" y="527" on="1"/>
        <pt x="402" y="632" on="0"/>
        <pt x="477" y="632" on="1"/>
        <pt x="563" y="632" on="0"/>
        <pt x="563" y="481" on="1"/>
        <pt x="563" y="0" on="1"/>
        <pt x="425" y="0" on="1"/>
        <pt x="425" y="430" on="1"/>
        <pt x="425" y="469" on="0"/>
        <pt x="398" y="469" on="1"/>
        <pt x="371" y="469" on="0"/>
        <pt x="371" y="430" on="1"/>
        <pt x="371" y="0" on="1"/>
        <pt x="233" y="0" on="1"/>
        <pt x="233" y="430" on="1"/>
        <pt x="233" y="469" on="0"/>
        <pt x="206" y="469" on="1"/>
        <pt x="179" y="469" on="0"/>
        <pt x="179" y="430" on="1"/>
        <pt x="179" y="0" on="1"/>
        <pt x="41" y="0" on="1"/>
        <pt x="41" y="613" on="1"/>
      </contour>
    </TTGlyph>
    <TTGlyph name="minus" xMin="54" yMin="280" xMax="546" yMax="420">
      <contour>
        <pt x="54" y="420" on="1"/>
        <pt x="546" y="420" on="1"/>
        <pt x="546" y="280" on="1"/>
        <pt x="54" y="280" on="1"/>
      </contour>
    </TTGlyph>
    <TTGlyph name="minus.case" xMin="54" yMin="330" xMax="546" yMax="470">
      <component glyphName="minus" x="0" y="50" flags="0x4"/>
    </TTGlyph>
    <TTGlyph name="multiply" xMin="64" yMin="114" xMax="536" yMax="586">
      <contour>
        <pt x="300" y="261" on="1"/>
        <pt x="153" y="114" on="1"/>
        <pt x="64" y="203" on="1"/>
        <pt x="211" y="350" on="1"/>
        <pt x="64" y="497" on="1"/>
        <pt x="153" y="586" on="1"/>
        <pt x="300" y="439" on="1"/>
        <pt x="447" y="586" on="1"/>
        <pt x="536" y="497" on="1"/>
        <pt x="389" y="350" on="1"/>
        <pt x="536" y="203" on="1"/>
        <pt x="447" y="114" on="1"/>
      </contour>
    </TTGlyph>
    <TTGlyph name="multiply.case" xMin="64" yMin="164" xMax="536" yMax="636">
      <component glyphName="multiply" x="0" y="50" flags="0x4"/>
    </TTGlyph>
    <TTGlyph name="n" xMin="74" yMin="0" xMax="534" yMax="632">
      <contour>
        <pt x="230" y="613" on="1"/>
        <pt x="230" y="519" on="1"/>
        <pt x="266" y="519" on="1"/>
        <pt x="274" y="574" on="0"/>
        <pt x="337" y="632" on="0"/>
        <pt x="389" y="632" on="1"/>
        <pt x="458" y="632" on="0"/>
        <pt x="534" y="523" on="0"/>
        <pt x="534" y="425" on="1"/>
        <pt x="534" y="0" on="1"/>
        <pt x="378" y="0" on="1"/>
        <pt x="378" y="370" on="1"/>
        <pt x="378" y="428" on="0"/>
        <pt x="342" y="482" on="0"/>
        <pt x="304" y="482" on="1"/>
        <pt x="266" y="482" on="0"/>
        <pt x="230" y="428" on="0"/>
        <pt x="230" y="370" on="1"/>
        <pt x="230" y="0" on="1"/>
        <pt x="74" y="0" on="1"/>
        <pt x="74" y="613" on="1"/>
      </contour>
    </TTGlyph>
    <TTGlyph name="nine" xMin="40" yMin="0" xMax="560" yMax="819">
      <contour>
        <pt x="382" y="819" on="0"/>
        <pt x="498" y="750" on="0"/>
        <pt x="560" y="620" on="0"/>
        <pt x="560" y="531" on="1"/>
        <pt x="560" y="423" on="0"/>
        <pt x="503" y="315" on="1"/>
        <pt x="330" y="0" on="1"/>
        <pt x="148" y="0" on="1"/>
        <pt x="311" y="288" on="1"/>
        <pt x="282" y="306" on="1"/>
        <pt x="261" y="287" on="0"/>
        <pt x="222" y="287" on="1"/>
        <pt x="171" y="287" on="0"/>
        <pt x="88" y="351" on="0"/>
        <pt x="40" y="463" on="0"/>
        <pt x="40" y="531" on="1"/>
        <pt x="40" y="620" on="0"/>
        <pt x="103" y="750" on="0"/>
        <pt x="222" y="819" on="0"/>
        <pt x="303" y="819" on="1"/>
      </contour>
      <contour>
        <pt x="209" y="468" on="0"/>
        <pt x="257" y="396" on="0"/>
        <pt x="300" y="396" on="1"/>
        <pt x="343" y="396" on="0"/>
        <pt x="391" y="468" on="0"/>
        <pt x="391" y="531" on="1"/>
        <pt x="391" y="593" on="0"/>
        <pt x="343" y="665" on="0"/>
        <pt x="300" y="665" on="1"/>
        <pt x="257" y="665" on="0"/>
        <pt x="209" y="593" on="0"/>
        <pt x="209" y="531" on="1"/>
      </contour>
    </TTGlyph>
    <TTGlyph name="notequal" xMin="90" yMin="10" xMax="510" yMax="690">
      <contour>
        <pt x="90" y="550" on="1"/>
        <pt x="319" y="550" on="1"/>
        <pt x="376" y="690" on="1"/>
        <pt x="503" y="690" on="1"/>
        <pt x="446" y="550" on="1"/>
        <pt x="510" y="550" on="1"/>
        <pt x="510" y="410" on="1"/>
        <pt x="388" y="410" on="1"/>
        <pt x="339" y="290" on="1"/>
        <pt x="510" y="290" on="1"/>
        <pt x="510" y="150" on="1"/>
        <pt x="281" y="150" on="1"/>
        <pt x="224" y="10" on="1"/>
        <pt x="97" y="10" on="1"/>
        <pt x="154" y="150" on="1"/>
        <pt x="90" y="150" on="1"/>
        <pt x="90" y="290" on="1"/>
        <pt x="212" y="290" on="1"/>
        <pt x="261" y="410" on="1"/>
        <pt x="90" y="410" on="1"/>
      </contour>
    </TTGlyph>
    <TTGlyph name="notequal.case" xMin="90" yMin="60" xMax="510" yMax="740">
      <component glyphName="notequal" x="0" y="50" flags="0x4"/>
    </TTGlyph>
    <TTGlyph name="numbersign" xMin="29" yMin="0" xMax="571" yMax="800">
      <contour>
        <pt x="301" y="621" on="1"/>
        <pt x="386" y="621" on="1"/>
        <pt x="421" y="800" on="1"/>
        <pt x="544" y="800" on="1"/>
        <pt x="509" y="621" on="1"/>
        <pt x="571" y="621" on="1"/>
        <pt x="571" y="483" on="1"/>
        <pt x="482" y="483" on="1"/>
        <pt x="449" y="317" on="1"/>
        <pt x="517" y="317" on="1"/>
        <pt x="517" y="179" on="1"/>
        <pt x="422" y="179" on="1"/>
        <pt x="387" y="0" on="1"/>
        <pt x="264" y="0" on="1"/>
        <pt x="299" y="179" on="1"/>
        <pt x="214" y="179" on="1"/>
        <pt x="179" y="0" on="1"/>
        <pt x="56" y="0" on="1"/>
        <pt x="91" y="179" on="1"/>
        <pt x="29" y="179" on="1"/>
        <pt x="29" y="317" on="1"/>
        <pt x="118" y="317" on="1"/>
        <pt x="151" y="483" on="1"/>
        <pt x="83" y="483" on="1"/>
        <pt x="83" y="621" on="1"/>
        <pt x="178" y="621" on="1"/>
        <pt x="213" y="800" on="1"/>
        <pt x="336" y="800" on="1"/>
      </contour>
      <contour>
        <pt x="326" y="317" on="1"/>
        <pt x="359" y="483" on="1"/>
        <pt x="274" y="483" on="1"/>
        <pt x="241" y="317" on="1"/>
      </contour>
    </TTGlyph>
    <TTGlyph name="o" xMin="54" yMin="-19" xMax="546" yMax="632">
      <contour>
        <pt x="182" y="-19" on="0"/>
        <pt x="54" y="151" on="0"/>
        <pt x="54" y="307" on="1"/>
        <pt x="54" y="463" on="0"/>
        <pt x="182" y="632" on="0"/>
        <pt x="300" y="632" on="1"/>
        <pt x="418" y="632" on="0"/>
        <pt x="546" y="463" on="0"/>
        <pt x="546" y="307" on="1"/>
        <pt x="546" y="151" on="0"/>
        <pt x="418" y="-19" on="0"/>
        <pt x="300" y="-19" on="1"/>
      </contour>
      <contour>
        <pt x="203" y="213" on="0"/>
        <pt x="252" y="118" on="0"/>
        <pt x="300" y="118" on="1"/>
        <pt x="348" y="118" on="0"/>
        <pt x="397" y="213" on="0"/>
        <pt x="397" y="307" on="1"/>
        <pt x="397" y="400" on="0"/>
        <pt x="348" y="496" on="0"/>
        <pt x="300" y="496" on="1"/>
        <pt x="252" y="496" on="0"/>
        <pt x="203" y="400" on="0"/>
        <pt x="203" y="307" on="1"/>
      </contour>
    </TTGlyph>
    <TTGlyph name="one" xMin="64" yMin="0" xMax="576" yMax="800">
      <contour>
        <pt x="409" y="146" on="1"/>
        <pt x="576" y="146" on="1"/>
        <pt x="576" y="0" on="1"/>
        <pt x="64" y="0" on="1"/>
        <pt x="64" y="146" on="1"/>
        <pt x="246" y="146" on="1"/>
        <pt x="246" y="644" on="1"/>
        <pt x="64" y="516" on="1"/>
        <pt x="64" y="703" on="1"/>
        <pt x="215" y="800" on="1"/>
        <pt x="409" y="800" on="1"/>
      </contour>
    </TTGlyph>
    <TTGlyph name="p" xMin="71" yMin="-200" xMax="559" yMax="629">
      <contour>
        <pt x="469" y="629" on="0"/>
        <pt x="559" y="462" on="0"/>
        <pt x="559" y="307" on="1"/>
        <pt x="559" y="152" on="0"/>
        <pt x="469" y="-16" on="0"/>
        <pt x="386" y="-16" on="1"/>
        <pt x="338" y="-16" on="0"/>
        <pt x="274" y="36" on="0"/>
        <pt x="264" y="84" on="1"/>
        <pt x="227" y="84" on="1"/>
        <pt x="227" y="-200" on="1"/>
        <pt x="71" y="-200" on="1"/>
        <pt x="71" y="613" on="1"/>
        <pt x="227" y="613" on="1"/>
        <pt x="227" y="529" on="1"/>
        <pt x="264" y="529" on="1"/>
        <pt x="274" y="577" on="0"/>
        <pt x="338" y="629" on="0"/>
        <pt x="386" y="629" on="1"/>
      </contour>
      <contour>
        <pt x="217" y="214" on="0"/>
        <pt x="266" y="119" on="0"/>
        <pt x="313" y="119" on="1"/>
        <pt x="408" y="119" on="0"/>
        <pt x="408" y="307" on="1"/>
        <pt x="408" y="494" on="0"/>
        <pt x="313" y="494" on="1"/>
        <pt x="266" y="494" on="0"/>
        <pt x="217" y="400" on="0"/>
        <pt x="217" y="307" on="1"/>
      </contour>
    </TTGlyph>
    <TTGlyph name="parenleft" xMin="181" yMin="-199" xMax="509" yMax="959">
      <contour>
        <pt x="424" y="764" on="0"/>
        <pt x="337" y="540" on="0"/>
        <pt x="337" y="380" on="1"/>
        <pt x="337" y="220" on="0"/>
        <pt x="424" y="-4" on="0"/>
        <pt x="509" y="-60" on="1"/>
        <pt x="509" y="-199" on="1"/>
        <pt x="353" y="-123" on="0"/>
        <pt x="181" y="181" on="0"/>
        <pt x="181" y="380" on="1"/>
        <pt x="181" y="579" on="0"/>
        <pt x="353" y="883" on="0"/>
        <pt x="509" y="959" on="1"/>
        <pt x="509" y="820" on="1"/>
      </contour>
    </TTGlyph>
    <TTGlyph name="parenright" xMin="91" yMin="-199" xMax="419" yMax="959">
      <contour>
        <pt x="247" y="883" on="0"/>
        <pt x="419" y="579" on="0"/>
        <pt x="419" y="380" on="1"/>
        <pt x="419" y="181" on="0"/>
        <pt x="247" y="-123" on="0"/>
        <pt x="91" y="-199" on="1"/>
        <pt x="91" y="-60" on="1"/>
        <pt x="176" y="-4" on="0"/>
        <pt x="263" y="220" on="0"/>
        <pt x="263" y="380" on="1"/>
        <pt x="263" y="540" on="0"/>
        <pt x="176" y="764" on="0"/>
        <pt x="91" y="820" on="1"/>
        <pt x="91" y="959" on="1"/>
      </contour>
    </TTGlyph>
    <TTGlyph name="percent" xMin="25" yMin="-19" xMax="575" yMax="819">
      <contour>
        <pt x="25" y="278" on="1"/>
        <pt x="575" y="640" on="1"/>
        <pt x="575" y="522" on="1"/>
        <pt x="25" y="160" on="1"/>
      </contour>
      <contour>
        <pt x="32" y="729" on="0"/>
        <pt x="109" y="819" on="0"/>
        <pt x="179" y="819" on="1"/>
        <pt x="249" y="819" on="0"/>
        <pt x="327" y="729" on="0"/>
        <pt x="327" y="649" on="1"/>
        <pt x="327" y="569" on="0"/>
        <pt x="249" y="480" on="0"/>
        <pt x="179" y="480" on="1"/>
        <pt x="109" y="480" on="0"/>
        <pt x="32" y="569" on="0"/>
        <pt x="32" y="649" on="1"/>
      </contour>
      <contour>
        <pt x="148" y="597" on="0"/>
        <pt x="179" y="597" on="1"/>
        <pt x="195" y="597" on="0"/>
        <pt x="210" y="622" on="0"/>
        <pt x="210" y="649" on="1"/>
        <pt x="210" y="676" on="0"/>
        <pt x="195" y="702" on="0"/>
        <pt x="179" y="702" on="1"/>
        <pt x="148" y="702" on="0"/>
        <pt x="148" y="649" on="1"/>
      </contour>
      <contour>
        <pt x="273" y="231" on="0"/>
        <pt x="351" y="320" on="0"/>
        <pt x="421" y="320" on="1"/>
        <pt x="491" y="320" on="0"/>
        <pt x="568" y="231" on="0"/>
        <pt x="568" y="151" on="1"/>
        <pt x="568" y="71" on="0"/>
        <pt x="491" y="-19" on="0"/>
        <pt x="421" y="-19" on="1"/>
        <pt x="351" y="-19" on="0"/>
        <pt x="273" y="71" on="0"/>
        <pt x="273" y="151" on="1"/>
      </contour>
      <contour>
        <pt x="390" y="124" on="0"/>
        <pt x="405" y="98" on="0"/>
        <pt x="421" y="98" on="1"/>
        <pt x="452" y="98" on="0"/>
        <pt x="452" y="151" on="1"/>
        <pt x="452" y="203" on="0"/>
        <pt x="421" y="203" on="1"/>
        <pt x="405" y="203" on="0"/>
        <pt x="390" y="178" on="0"/>
        <pt x="390" y="151" on="1"/>
      </contour>
    </TTGlyph>
    <TTGlyph name="percent.cv01" xMin="32" yMin="-19" xMax="568" yMax="819">
      <contour>
        <pt x="346" y="-19" on="0"/>
        <pt x="273" y="85" on="0"/>
        <pt x="273" y="192" on="1"/>
        <pt x="273" y="297" on="0"/>
        <pt x="346" y="400" on="0"/>
        <pt x="421" y="400" on="1"/>
        <pt x="495" y="400" on="0"/>
        <pt x="568" y="297" on="0"/>
        <pt x="568" y="192" on="1"/>
        <pt x="568" y="85" on="0"/>
        <pt x="495" y="-19" on="0"/>
        <pt x="421" y="-19" on="1"/>
      </contour>
      <contour>
        <pt x="32" y="715" on="0"/>
        <pt x="105" y="819" on="0"/>
        <pt x="179" y="819" on="1"/>
        <pt x="254" y="819" on="0"/>
        <pt x="327" y="715" on="0"/>
        <pt x="327" y="608" on="1"/>
        <pt x="327" y="503" on="0"/>
        <pt x="254" y="400" on="0"/>
        <pt x="179" y="400" on="1"/>
        <pt x="105" y="400" on="0"/>
        <pt x="32" y="503" on="0"/>
        <pt x="32" y="608" on="1"/>
      </contour>
      <contour>
        <pt x="158" y="340" on="1"/>
        <pt x="262" y="340" on="1"/>
        <pt x="177" y="0" on="1"/>
        <pt x="62" y="0" on="1"/>
      </contour>
      <contour>
        <pt x="148" y="560" on="0"/>
        <pt x="163" y="517" on="0"/>
        <pt x="179" y="517" on="1"/>
        <pt x="195" y="517" on="0"/>
        <pt x="210" y="560" on="0"/>
        <pt x="210" y="608" on="1"/>
        <pt x="210" y="657" on="0"/>
        <pt x="195" y="702" on="0"/>
        <pt x="179" y="702" on="1"/>
        <pt x="163" y="702" on="0"/>
        <pt x="148" y="657" on="0"/>
        <pt x="148" y="608" on="1"/>
      </contour>
      <contour>
        <pt x="423" y="800" on="1"/>
        <pt x="538" y="800" on="1"/>
        <pt x="442" y="460" on="1"/>
        <pt x="338" y="460" on="1"/>
      </contour>
      <contour>
        <pt x="390" y="143" on="0"/>
        <pt x="405" y="98" on="0"/>
        <pt x="421" y="98" on="1"/>
        <pt x="437" y="98" on="0"/>
        <pt x="452" y="144" on="0"/>
        <pt x="452" y="192" on="1"/>
        <pt x="452" y="240" on="0"/>
        <pt x="437" y="283" on="0"/>
        <pt x="421" y="283" on="1"/>
        <pt x="405" y="283" on="0"/>
        <pt x="390" y="240" on="0"/>
        <pt x="390" y="192" on="1"/>
      </contour>
    </TTGlyph>
    <TTGlyph name="percent.cv02" xMin="32" yMin="-19" xMax="568" yMax="819">
      <contour>
        <pt x="351" y="-19" on="0"/>
        <pt x="273" y="71" on="0"/>
        <pt x="273" y="151" on="1"/>
        <pt x="273" y="231" on="0"/>
        <pt x="351" y="320" on="0"/>
        <pt x="421" y="320" on="1"/>
        <pt x="491" y="320" on="0"/>
        <pt x="568" y="231" on="0"/>
        <pt x="568" y="151" on="1"/>
        <pt x="568" y="71" on="0"/>
        <pt x="491" y="-19" on="0"/>
        <pt x="421" y="-19" on="1"/>
      </contour>
      <contour>
        <pt x="32" y="729" on="0"/>
        <pt x="109" y="819" on="0"/>
        <pt x="179" y="819" on="1"/>
        <pt x="249" y="819" on="0"/>
        <pt x="327" y="729" on="0"/>
        <pt x="327" y="649" on="1"/>
        <pt x="327" y="569" on="0"/>
        <pt x="249" y="480" on="0"/>
        <pt x="179" y="480" on="1"/>
        <pt x="109" y="480" on="0"/>
        <pt x="32" y="569" on="0"/>
        <pt x="32" y="649" on="1"/>
      </contour>
      <contour>
        <pt x="62" y="127" on="1"/>
        <pt x="538" y="819" on="1"/>
        <pt x="538" y="673" on="1"/>
        <pt x="62" y="-19" on="1"/>
      </contour>
      <contour>
        <pt x="148" y="597" on="0"/>
        <pt x="179" y="597" on="1"/>
        <pt x="195" y="597" on="0"/>
        <pt x="210" y="622" on="0"/>
        <pt x="210" y="649" on="1"/>
        <pt x="210" y="676" on="0"/>
        <pt x="195" y="702" on="0"/>
        <pt x="179" y="702" on="1"/>
        <pt x="148" y="702" on="0"/>
        <pt x="148" y="649" on="1"/>
      </contour>
      <contour>
        <pt x="390" y="124" on="0"/>
        <pt x="405" y="98" on="0"/>
        <pt x="421" y="98" on="1"/>
        <pt x="452" y="98" on="0"/>
        <pt x="452" y="151" on="1"/>
        <pt x="452" y="203" on="0"/>
        <pt x="421" y="203" on="1"/>
        <pt x="405" y="203" on="0"/>
        <pt x="390" y="178" on="0"/>
        <pt x="390" y="151" on="1"/>
      </contour>
    </TTGlyph>
    <TTGlyph name="period" xMin="191" yMin="-11" xMax="409" yMax="247">
      <contour>
        <pt x="246" y="-11" on="0"/>
        <pt x="191" y="54" on="0"/>
        <pt x="191" y="118" on="1"/>
        <pt x="191" y="182" on="0"/>
        <pt x="246" y="247" on="0"/>
        <pt x="300" y="247" on="1"/>
        <pt x="354" y="247" on="0"/>
        <pt x="409" y="182" on="0"/>
        <pt x="409" y="118" on="1"/>
        <pt x="409" y="54" on="0"/>
        <pt x="354" y="-11" on="0"/>
        <pt x="300" y="-11" on="1"/>
      </contour>
    </TTGlyph>
    <TTGlyph name="plus" xMin="54" yMin="104" xMax="546" yMax="596">
      <contour>
        <pt x="54" y="420" on="1"/>
        <pt x="230" y="420" on="1"/>
        <pt x="230" y="596" on="1"/>
        <pt x="370" y="596" on="1"/>
        <pt x="370" y="420" on="1"/>
        <pt x="546" y="420" on="1"/>
        <pt x="546" y="280" on="1"/>
        <pt x="370" y="280" on="1"/>
        <pt x="370" y="104" on="1"/>
        <pt x="230" y="104" on="1"/>
        <pt x="230" y="280" on="1"/>
        <pt x="54" y="280" on="1"/>
      </contour>
    </TTGlyph>
    <TTGlyph name="plus.case" xMin="54" yMin="154" xMax="546" yMax="646">
      <component glyphName="plus" x="0" y="50" flags="0x4"/>
    </TTGlyph>
    <TTGlyph name="q" xMin="41" yMin="-200" xMax="529" yMax="629">
      <contour>
        <pt x="262" y="629" on="0"/>
        <pt x="326" y="577" on="0"/>
        <pt x="336" y="529" on="1"/>
        <pt x="373" y="529" on="1"/>
        <pt x="373" y="613" on="1"/>
        <pt x="529" y="613" on="1"/>
        <pt x="529" y="-200" on="1"/>
        <pt x="373" y="-200" on="1"/>
        <pt x="373" y="84" on="1"/>
        <pt x="336" y="84" on="1"/>
        <pt x="326" y="36" on="0"/>
        <pt x="262" y="-16" on="0"/>
        <pt x="214" y="-16" on="1"/>
        <pt x="131" y="-16" on="0"/>
        <pt x="41" y="152" on="0"/>
        <pt x="41" y="307" on="1"/>
        <pt x="41" y="462" on="0"/>
        <pt x="131" y="629" on="0"/>
        <pt x="214" y="629" on="1"/>
      </contour>
      <contour>
        <pt x="192" y="119" on="0"/>
        <pt x="287" y="119" on="1"/>
        <pt x="334" y="119" on="0"/>
        <pt x="383" y="214" on="0"/>
        <pt x="383" y="307" on="1"/>
        <pt x="383" y="400" on="0"/>
        <pt x="334" y="494" on="0"/>
        <pt x="287" y="494" on="1"/>
        <pt x="192" y="494" on="0"/>
        <pt x="192" y="307" on="1"/>
      </contour>
    </TTGlyph>
    <TTGlyph name="question" xMin="55" yMin="-9" xMax="549" yMax="819">
      <contour>
        <pt x="214" y="320" on="0"/>
        <pt x="241" y="398" on="0"/>
        <pt x="280" y="445" on="0"/>
        <pt x="311" y="472" on="1"/>
        <pt x="346" y="503" on="0"/>
        <pt x="380" y="553" on="0"/>
        <pt x="380" y="593" on="1"/>
        <pt x="380" y="625" on="0"/>
        <pt x="345" y="663" on="0"/>
        <pt x="314" y="663" on="1"/>
        <pt x="277" y="663" on="0"/>
        <pt x="233" y="611" on="0"/>
        <pt x="230" y="563" on="1"/>
        <pt x="55" y="563" on="1"/>
        <pt x="65" y="686" on="0"/>
        <pt x="201" y="819" on="0"/>
        <pt x="316" y="819" on="1"/>
        <pt x="425" y="819" on="0"/>
        <pt x="549" y="698" on="0"/>
        <pt x="549" y="593" on="1"/>
        <pt x="549" y="540" on="0"/>
        <pt x="520" y="465" on="0"/>
        <pt x="478" y="417" on="0"/>
        <pt x="445" y="387" on="1"/>
        <pt x="407" y="353" on="0"/>
        <pt x="371" y="302" on="0"/>
        <pt x="372" y="263" on="1"/>
        <pt x="214" y="263" on="1"/>
      </contour>
      <contour>
        <pt x="190" y="209" on="0"/>
        <pt x="294" y="209" on="1"/>
        <pt x="346" y="209" on="0"/>
        <pt x="399" y="154" on="0"/>
        <pt x="399" y="100" on="1"/>
        <pt x="399" y="46" on="0"/>
        <pt x="346" y="-9" on="0"/>
        <pt x="294" y="-9" on="1"/>
        <pt x="190" y="-9" on="0"/>
        <pt x="190" y="100" on="1"/>
      </contour>
    </TTGlyph>
    <TTGlyph name="quotedbl" xMin="94" yMin="432" xMax="506" yMax="848">
      <component glyphName="quotesingle" x="-121" y="0" flags="0x0"/>
      <component glyphName="quotesingle" x="121" y="0" flags="0x0"/>
    </TTGlyph>
    <TTGlyph name="quotedblbase" xMin="44" yMin="-187" xMax="544" yMax="247">
      <component glyphName="comma" x="-140" y="0" flags="0x0"/>
      <component glyphName="comma" x="123" y="0" flags="0x0"/>
    </TTGlyph>
    <TTGlyph name="quotedblleft" xMin="56" yMin="409" xMax="556" yMax="843">
      <contour>
        <pt x="494" y="667" on="0"/>
        <pt x="549" y="602" on="0"/>
        <pt x="549" y="538" on="1"/>
        <pt x="549" y="474" on="0"/>
        <pt x="494" y="409" on="0"/>
        <pt x="440" y="409" on="1"/>
        <pt x="319" y="409" on="0"/>
        <pt x="319" y="565" on="1"/>
        <pt x="319" y="720" on="0"/>
        <pt x="394" y="843" on="1"/>
        <pt x="556" y="843" on="1"/>
        <pt x="446" y="765" on="0"/>
        <pt x="419" y="666" on="1"/>
        <pt x="426" y="667" on="0"/>
        <pt x="440" y="667" on="1"/>
      </contour>
      <contour>
        <pt x="56" y="720" on="0"/>
        <pt x="131" y="843" on="1"/>
        <pt x="293" y="843" on="1"/>
        <pt x="183" y="765" on="0"/>
        <pt x="156" y="666" on="1"/>
        <pt x="163" y="667" on="0"/>
        <pt x="177" y="667" on="1"/>
        <pt x="231" y="667" on="0"/>
        <pt x="286" y="602" on="0"/>
        <pt x="286" y="538" on="1"/>
        <pt x="286" y="474" on="0"/>
        <pt x="231" y="409" on="0"/>
        <pt x="177" y="409" on="1"/>
        <pt x="56" y="409" on="0"/>
        <pt x="56" y="565" on="1"/>
      </contour>
    </TTGlyph>
    <TTGlyph name="quotedblright" xMin="44" yMin="480" xMax="544" yMax="914">
      <component glyphName="quotedblbase" x="0" y="667" flags="0x4"/>
    </TTGlyph>
    <TTGlyph name="quoteleft" xMin="179" yMin="409" xMax="416" yMax="843">
      <contour>
        <pt x="354" y="667" on="0"/>
        <pt x="409" y="602" on="0"/>
        <pt x="409" y="538" on="1"/>
        <pt x="409" y="474" on="0"/>
        <pt x="354" y="409" on="0"/>
        <pt x="300" y="409" on="1"/>
        <pt x="179" y="409" on="0"/>
        <pt x="179" y="565" on="1"/>
        <pt x="179" y="720" on="0"/>
        <pt x="254" y="843" on="1"/>
        <pt x="416" y="843" on="1"/>
        <pt x="306" y="765" on="0"/>
        <pt x="279" y="666" on="1"/>
        <pt x="286" y="667" on="0"/>
        <pt x="300" y="667" on="1"/>
      </contour>
    </TTGlyph>
    <TTGlyph name="quoteright" xMin="184" yMin="480" xMax="421" yMax="914">
      <component glyphName="comma" x="0" y="667" flags="0x4"/>
    </TTGlyph>
    <TTGlyph name="quotesinglbase" xMin="184" yMin="-187" xMax="421" yMax="247">
      <component glyphName="comma" x="0" y="0" flags="0x0"/>
    </TTGlyph>
    <TTGlyph name="quotesingle" xMin="215" yMin="432" xMax="385" yMax="848">
      <contour>
        <pt x="385" y="848" on="1"/>
        <pt x="360" y="432" on="1"/>
        <pt x="240" y="432" on="1"/>
        <pt x="215" y="848" on="1"/>
      </contour>
    </TTGlyph>
    <TTGlyph name="r" xMin="67" yMin="0" xMax="565" yMax="629">
      <contour>
        <pt x="310" y="613" on="1"/>
        <pt x="310" y="528" on="1"/>
        <pt x="352" y="528" on="1"/>
        <pt x="370" y="629" on="0"/>
        <pt x="457" y="629" on="1"/>
        <pt x="510" y="629" on="0"/>
        <pt x="565" y="543" on="0"/>
        <pt x="565" y="460" on="1"/>
        <pt x="565" y="327" on="1"/>
        <pt x="402" y="327" on="1"/>
        <pt x="402" y="429" on="1"/>
        <pt x="402" y="483" on="0"/>
        <pt x="363" y="483" on="1"/>
        <pt x="336" y="483" on="0"/>
        <pt x="310" y="432" on="0"/>
        <pt x="310" y="377" on="1"/>
        <pt x="310" y="136" on="1"/>
        <pt x="441" y="136" on="1"/>
        <pt x="441" y="0" on="1"/>
        <pt x="78" y="0" on="1"/>
        <pt x="78" y="136" on="1"/>
        <pt x="160" y="136" on="1"/>
        <pt x="160" y="477" on="1"/>
        <pt x="67" y="477" on="1"/>
        <pt x="67" y="613" on="1"/>
      </contour>
    </TTGlyph>
    <TTGlyph name="s" xMin="76" yMin="-19" xMax="537" yMax="632">
      <contour>
        <pt x="228" y="152" on="0"/>
        <pt x="269" y="115" on="0"/>
        <pt x="308" y="115" on="1"/>
        <pt x="340" y="115" on="0"/>
        <pt x="377" y="146" on="0"/>
        <pt x="377" y="173" on="1"/>
        <pt x="377" y="198" on="0"/>
        <pt x="349" y="225" on="0"/>
        <pt x="318" y="230" on="1"/>
        <pt x="254" y="241" on="1"/>
        <pt x="166" y="257" on="0"/>
        <pt x="79" y="351" on="0"/>
        <pt x="79" y="431" on="1"/>
        <pt x="79" y="524" on="0"/>
        <pt x="198" y="632" on="0"/>
        <pt x="300" y="632" on="1"/>
        <pt x="409" y="632" on="0"/>
        <pt x="531" y="518" on="0"/>
        <pt x="537" y="411" on="1"/>
        <pt x="392" y="411" on="1"/>
        <pt x="388" y="455" on="0"/>
        <pt x="342" y="498" on="0"/>
        <pt x="300" y="498" on="1"/>
        <pt x="266" y="498" on="0"/>
        <pt x="228" y="467" on="0"/>
        <pt x="228" y="438" on="1"/>
        <pt x="228" y="413" on="0"/>
        <pt x="256" y="385" on="0"/>
        <pt x="287" y="379" on="1"/>
        <pt x="351" y="368" on="1"/>
        <pt x="439" y="352" on="0"/>
        <pt x="526" y="260" on="0"/>
        <pt x="526" y="182" on="1"/>
        <pt x="526" y="90" on="0"/>
        <pt x="408" y="-19" on="0"/>
        <pt x="308" y="-19" on="1"/>
        <pt x="202" y="-19" on="0"/>
        <pt x="84" y="88" on="0"/>
        <pt x="76" y="191" on="1"/>
        <pt x="223" y="191" on="1"/>
      </contour>
    </TTGlyph>
    <TTGlyph name="section" xMin="69" yMin="-216" xMax="531" yMax="816">
      <contour>
        <pt x="356" y="660" on="0"/>
        <pt x="308" y="660" on="1"/>
        <pt x="286" y="660" on="0"/>
        <pt x="260" y="631" on="0"/>
        <pt x="260" y="606" on="1"/>
        <pt x="260" y="540" on="0"/>
        <pt x="341" y="518" on="1"/>
        <pt x="434" y="492" on="0"/>
        <pt x="531" y="386" on="0"/>
        <pt x="531" y="309" on="1"/>
        <pt x="531" y="236" on="0"/>
        <pt x="460" y="139" on="0"/>
        <pt x="393" y="119" on="1"/>
        <pt x="393" y="87" on="1"/>
        <pt x="444" y="75" on="0"/>
        <pt x="499" y="8" on="0"/>
        <pt x="499" y="-43" on="1"/>
        <pt x="499" y="-123" on="0"/>
        <pt x="393" y="-216" on="0"/>
        <pt x="302" y="-216" on="1"/>
        <pt x="198" y="-216" on="0"/>
        <pt x="85" y="-105" on="0"/>
        <pt x="79" y="3" on="1"/>
        <pt x="238" y="3" on="1"/>
        <pt x="244" y="-60" on="0"/>
        <pt x="292" y="-60" on="1"/>
        <pt x="314" y="-60" on="0"/>
        <pt x="340" y="-31" on="0"/>
        <pt x="340" y="-6" on="1"/>
        <pt x="340" y="60" on="0"/>
        <pt x="259" y="82" on="1"/>
        <pt x="166" y="108" on="0"/>
        <pt x="69" y="214" on="0"/>
        <pt x="69" y="291" on="1"/>
        <pt x="69" y="364" on="0"/>
        <pt x="140" y="461" on="0"/>
        <pt x="207" y="481" on="1"/>
        <pt x="207" y="513" on="1"/>
        <pt x="156" y="525" on="0"/>
        <pt x="101" y="592" on="0"/>
        <pt x="101" y="643" on="1"/>
        <pt x="101" y="723" on="0"/>
        <pt x="207" y="816" on="0"/>
        <pt x="298" y="816" on="1"/>
        <pt x="402" y="816" on="0"/>
        <pt x="515" y="705" on="0"/>
        <pt x="521" y="597" on="1"/>
        <pt x="362" y="597" on="1"/>
      </contour>
      <contour>
        <pt x="231" y="259" on="0"/>
        <pt x="268" y="213" on="0"/>
        <pt x="300" y="213" on="1"/>
        <pt x="332" y="213" on="0"/>
        <pt x="369" y="259" on="0"/>
        <pt x="369" y="300" on="1"/>
        <pt x="369" y="341" on="0"/>
        <pt x="332" y="387" on="0"/>
        <pt x="300" y="387" on="1"/>
        <pt x="268" y="387" on="0"/>
        <pt x="231" y="341" on="0"/>
        <pt x="231" y="300" on="1"/>
      </contour>
    </TTGlyph>
    <TTGlyph name="semicolon" xMin="184" yMin="-187" xMax="421" yMax="624">
      <component glyphName="period" x="0" y="377" flags="0x4"/>
      <component glyphName="comma" x="0" y="0" flags="0x0"/>
    </TTGlyph>
    <TTGlyph name="seven" xMin="50" yMin="0" xMax="530" yMax="800">
      <contour>
        <pt x="311" y="0" on="1"/>
        <pt x="139" y="0" on="1"/>
        <pt x="386" y="644" on="1"/>
        <pt x="50" y="644" on="1"/>
        <pt x="50" y="800" on="1"/>
        <pt x="530" y="800" on="1"/>
        <pt x="530" y="593" on="1"/>
      </contour>
    </TTGlyph>
    <TTGlyph name="six" xMin="40" yMin="-19" xMax="560" yMax="800">
      <contour>
        <pt x="218" y="-19" on="0"/>
        <pt x="102" y="50" on="0"/>
        <pt x="40" y="180" on="0"/>
        <pt x="40" y="269" on="1"/>
        <pt x="40" y="377" on="0"/>
        <pt x="97" y="485" on="1"/>
        <pt x="270" y="800" on="1"/>
        <pt x="452" y="800" on="1"/>
        <pt x="289" y="512" on="1"/>
        <pt x="318" y="494" on="1"/>
        <pt x="339" y="513" on="0"/>
        <pt x="378" y="513" on="1"/>
        <pt x="429" y="513" on="0"/>
        <pt x="512" y="449" on="0"/>
        <pt x="560" y="337" on="0"/>
        <pt x="560" y="269" on="1"/>
        <pt x="560" y="180" on="0"/>
        <pt x="497" y="50" on="0"/>
        <pt x="378" y="-19" on="0"/>
        <pt x="297" y="-19" on="1"/>
      </contour>
      <contour>
        <pt x="209" y="207" on="0"/>
        <pt x="257" y="135" on="0"/>
        <pt x="300" y="135" on="1"/>
        <pt x="343" y="135" on="0"/>
        <pt x="391" y="207" on="0"/>
        <pt x="391" y="269" on="1"/>
        <pt x="391" y="332" on="0"/>
        <pt x="343" y="404" on="0"/>
        <pt x="300" y="404" on="1"/>
        <pt x="257" y="404" on="0"/>
        <pt x="209" y="332" on="0"/>
        <pt x="209" y="269" on="1"/>
      </contour>
    </TTGlyph>
    <TTGlyph name="slash" xMin="87" yMin="-170" xMax="513" yMax="848">
      <contour>
        <pt x="234" y="-170" on="1"/>
        <pt x="87" y="-170" on="1"/>
        <pt x="366" y="848" on="1"/>
        <pt x="513" y="848" on="1"/>
      </contour>
    </TTGlyph>
    <TTGlyph name="sterling" xMin="54" yMin="0" xMax="566" yMax="819">
      <contour>
        <pt x="168" y="265" on="0"/>
        <pt x="168" y="323" on="1"/>
        <pt x="168" y="334" on="0"/>
        <pt x="167" y="340" on="1"/>
        <pt x="54" y="340" on="1"/>
        <pt x="54" y="458" on="1"/>
        <pt x="117" y="458" on="1"/>
        <pt x="92" y="517" on="0"/>
        <pt x="92" y="579" on="1"/>
        <pt x="92" y="692" on="0"/>
        <pt x="216" y="819" on="0"/>
        <pt x="325" y="819" on="1"/>
        <pt x="543" y="819" on="0"/>
        <pt x="566" y="559" on="1"/>
        <pt x="398" y="559" on="1"/>
        <pt x="386" y="663" on="0"/>
        <pt x="325" y="663" on="1"/>
        <pt x="294" y="663" on="0"/>
        <pt x="260" y="619" on="0"/>
        <pt x="260" y="579" on="1"/>
        <pt x="260" y="524" on="0"/>
        <pt x="290" y="458" on="1"/>
        <pt x="454" y="458" on="1"/>
        <pt x="454" y="340" on="1"/>
        <pt x="336" y="340" on="1"/>
        <pt x="337" y="334" on="0"/>
        <pt x="337" y="323" on="1"/>
        <pt x="337" y="256" on="0"/>
        <pt x="238" y="175" on="0"/>
        <pt x="132" y="156" on="1"/>
        <pt x="546" y="156" on="1"/>
        <pt x="546" y="0" on="1"/>
        <pt x="54" y="0" on="1"/>
        <pt x="54" y="254" on="1"/>
      </contour>
    </TTGlyph>
    <TTGlyph name="t" xMin="59" yMin="-19" xMax="548" yMax="772">
      <contour>
        <pt x="308" y="613" on="1"/>
        <pt x="535" y="613" on="1"/>
        <pt x="535" y="477" on="1"/>
        <pt x="308" y="477" on="1"/>
        <pt x="308" y="197" on="1"/>
        <pt x="308" y="157" on="0"/>
        <pt x="328" y="118" on="0"/>
        <pt x="349" y="118" on="1"/>
        <pt x="373" y="118" on="0"/>
        <pt x="399" y="175" on="0"/>
        <pt x="403" y="236" on="1"/>
        <pt x="548" y="236" on="1"/>
        <pt x="543" y="110" on="0"/>
        <pt x="439" y="-19" on="0"/>
        <pt x="342" y="-19" on="1"/>
        <pt x="248" y="-19" on="0"/>
        <pt x="152" y="90" on="0"/>
        <pt x="152" y="197" on="1"/>
        <pt x="152" y="477" on="1"/>
        <pt x="59" y="477" on="1"/>
        <pt x="59" y="613" on="1"/>
        <pt x="152" y="613" on="1"/>
        <pt x="152" y="772" on="1"/>
        <pt x="308" y="772" on="1"/>
      </contour>
    </TTGlyph>
    <TTGlyph name="three" xMin="28" yMin="-19" xMax="566" yMax="819">
      <contour>
        <pt x="562" y="106" on="0"/>
        <pt x="422" y="-19" on="0"/>
        <pt x="301" y="-19" on="1"/>
        <pt x="180" y="-19" on="0"/>
        <pt x="39" y="119" on="0"/>
        <pt x="30" y="247" on="1"/>
        <pt x="203" y="247" on="1"/>
        <pt x="207" y="192" on="0"/>
        <pt x="257" y="135" on="0"/>
        <pt x="301" y="135" on="1"/>
        <pt x="345" y="135" on="0"/>
        <pt x="392" y="186" on="0"/>
        <pt x="392" y="232" on="1"/>
        <pt x="392" y="277" on="0"/>
        <pt x="347" y="327" on="0"/>
        <pt x="307" y="327" on="1"/>
        <pt x="244" y="327" on="1"/>
        <pt x="244" y="472" on="1"/>
        <pt x="307" y="472" on="1"/>
        <pt x="349" y="472" on="0"/>
        <pt x="396" y="522" on="0"/>
        <pt x="396" y="566" on="1"/>
        <pt x="396" y="613" on="0"/>
        <pt x="349" y="665" on="0"/>
        <pt x="307" y="665" on="1"/>
        <pt x="260" y="665" on="0"/>
        <pt x="206" y="603" on="0"/>
        <pt x="201" y="543" on="1"/>
        <pt x="28" y="543" on="1"/>
        <pt x="37" y="675" on="0"/>
        <pt x="183" y="819" on="0"/>
        <pt x="307" y="819" on="1"/>
        <pt x="428" y="819" on="0"/>
        <pt x="566" y="691" on="0"/>
        <pt x="566" y="579" on="1"/>
        <pt x="566" y="514" on="0"/>
        <pt x="497" y="428" on="0"/>
        <pt x="438" y="418" on="1"/>
        <pt x="438" y="381" on="1"/>
        <pt x="496" y="371" on="0"/>
        <pt x="562" y="282" on="0"/>
        <pt x="562" y="214" on="1"/>
      </contour>
    </TTGlyph>
    <TTGlyph name="two" xMin="44" yMin="0" xMax="561" yMax="819">
      <contour>
        <pt x="355" y="467" on="0"/>
        <pt x="393" y="532" on="0"/>
        <pt x="393" y="571" on="1"/>
        <pt x="393" y="614" on="0"/>
        <pt x="352" y="663" on="0"/>
        <pt x="315" y="663" on="1"/>
        <pt x="272" y="663" on="0"/>
        <pt x="222" y="601" on="0"/>
        <pt x="218" y="543" on="1"/>
        <pt x="44" y="543" on="1"/>
        <pt x="52" y="675" on="0"/>
        <pt x="193" y="819" on="0"/>
        <pt x="315" y="819" on="1"/>
        <pt x="430" y="819" on="0"/>
        <pt x="561" y="687" on="0"/>
        <pt x="561" y="571" on="1"/>
        <pt x="561" y="501" on="0"/>
        <pt x="484" y="374" on="0"/>
        <pt x="403" y="307" on="1"/>
        <pt x="220" y="156" on="1"/>
        <pt x="545" y="156" on="1"/>
        <pt x="545" y="0" on="1"/>
        <pt x="60" y="0" on="1"/>
        <pt x="60" y="211" on="1"/>
        <pt x="313" y="430" on="1"/>
      </contour>
    </TTGlyph>
    <TTGlyph name="u" xMin="66" yMin="-19" xMax="526" yMax="613">
      <contour>
        <pt x="370" y="0" on="1"/>
        <pt x="370" y="94" on="1"/>
        <pt x="334" y="94" on="1"/>
        <pt x="326" y="39" on="0"/>
        <pt x="263" y="-19" on="0"/>
        <pt x="211" y="-19" on="1"/>
        <pt x="142" y="-19" on="0"/>
        <pt x="66" y="90" on="0"/>
        <pt x="66" y="188" on="1"/>
        <pt x="66" y="613" on="1"/>
        <pt x="222" y="613" on="1"/>
        <pt x="222" y="243" on="1"/>
        <pt x="222" y="186" on="0"/>
        <pt x="258" y="131" on="0"/>
        <pt x="296" y="131" on="1"/>
        <pt x="334" y="131" on="0"/>
        <pt x="370" y="185" on="0"/>
        <pt x="370" y="243" on="1"/>
        <pt x="370" y="613" on="1"/>
        <pt x="526" y="613" on="1"/>
        <pt x="526" y="0" on="1"/>
      </contour>
    </TTGlyph>
    <TTGlyph name="underscore" xMin="70" yMin="-162" xMax="530" yMax="-50">
      <contour>
        <pt x="530" y="-50" on="1"/>
        <pt x="530" y="-162" on="1"/>
        <pt x="70" y="-162" on="1"/>
        <pt x="70" y="-50" on="1"/>
      </contour>
    </TTGlyph>
    <TTGlyph name="uni0237" xMin="51" yMin="-219" xMax="460" yMax="613">
      <contour>
        <pt x="460" y="613" on="1"/>
        <pt x="460" y="-21" on="1"/>
        <pt x="460" y="-115" on="0"/>
        <pt x="353" y="-219" on="0"/>
        <pt x="256" y="-219" on="1"/>
        <pt x="162" y="-219" on="0"/>
        <pt x="55" y="-121" on="0"/>
        <pt x="51" y="-33" on="1"/>
        <pt x="203" y="-33" on="1"/>
        <pt x="207" y="-88" on="0"/>
        <pt x="254" y="-88" on="1"/>
        <pt x="304" y="-88" on="0"/>
        <pt x="304" y="-22" on="1"/>
        <pt x="304" y="477" on="1"/>
        <pt x="89" y="477" on="1"/>
        <pt x="89" y="613" on="1"/>
      </contour>
    </TTGlyph>
    <TTGlyph name="uni0306.cy" xMin="17" yMin="866" xMax="354" yMax="1024">
      <contour>
        <pt x="150" y="990" on="0"/>
        <pt x="168" y="959" on="0"/>
        <pt x="185" y="959" on="1"/>
        <pt x="202" y="959" on="0"/>
        <pt x="220" y="990" on="0"/>
        <pt x="222" y="1024" on="1"/>
        <pt x="354" y="1024" on="1"/>
        <pt x="348" y="947" on="0"/>
        <pt x="262" y="866" on="0"/>
        <pt x="185" y="866" on="1"/>
        <pt x="109" y="866" on="0"/>
        <pt x="23" y="947" on="0"/>
        <pt x="17" y="1024" on="1"/>
        <pt x="148" y="1024" on="1"/>
      </contour>
    </TTGlyph>
    <TTGlyph name="uni0307" xMin="-20" yMin="692" xMax="188" yMax="872">
      <contour>
        <pt x="35" y="692" on="0"/>
        <pt x="-20" y="740" on="0"/>
        <pt x="-20" y="782" on="1"/>
        <pt x="-20" y="824" on="0"/>
        <pt x="35" y="872" on="0"/>
        <pt x="84" y="872" on="1"/>
        <pt x="133" y="872" on="0"/>
        <pt x="188" y="824" on="0"/>
        <pt x="188" y="782" on="1"/>
        <pt x="188" y="740" on="0"/>
        <pt x="133" y="692" on="0"/>
        <pt x="84" y="692" on="1"/>
      </contour>
    </TTGlyph>
    <TTGlyph name="uni0308" xMin="-144" yMin="836" xMax="244" yMax="1013">
      <contour>
        <pt x="-103" y="836" on="0"/>
        <pt x="-144" y="882" on="0"/>
        <pt x="-144" y="924" on="1"/>
        <pt x="-144" y="966" on="0"/>
        <pt x="-103" y="1013" on="0"/>
        <pt x="-66" y="1013" on="1"/>
        <pt x="-29" y="1013" on="0"/>
        <pt x="13" y="966" on="0"/>
        <pt x="13" y="924" on="1"/>
        <pt x="13" y="882" on="0"/>
        <pt x="-28" y="836" on="0"/>
        <pt x="-66" y="836" on="1"/>
      </contour>
      <contour>
        <pt x="87" y="966" on="0"/>
        <pt x="129" y="1013" on="0"/>
        <pt x="166" y="1013" on="1"/>
        <pt x="203" y="1013" on="0"/>
        <pt x="244" y="966" on="0"/>
        <pt x="244" y="924" on="1"/>
        <pt x="244" y="882" on="0"/>
        <pt x="203" y="836" on="0"/>
        <pt x="166" y="836" on="1"/>
        <pt x="128" y="836" on="0"/>
        <pt x="87" y="882" on="0"/>
        <pt x="87" y="924" on="1"/>
      </contour>
    </TTGlyph>
    <TTGlyph name="uni043D" xMin="74" yMin="0" xMax="527" yMax="613">
      <contour>
        <pt x="230" y="613" on="1"/>
        <pt x="230" y="375" on="1"/>
        <pt x="370" y="375" on="1"/>
        <pt x="370" y="229" on="1"/>
        <pt x="230" y="229" on="1"/>
        <pt x="230" y="0" on="1"/>
        <pt x="74" y="0" on="1"/>
        <pt x="74" y="613" on="1"/>
      </contour>
      <contour>
        <pt x="371" y="613" on="1"/>
        <pt x="527" y="613" on="1"/>
        <pt x="527" y="0" on="1"/>
        <pt x="371" y="0" on="1"/>
      </contour>
    </TTGlyph>
    <TTGlyph name="uni043E" xMin="54" yMin="-19" xMax="546" yMax="632">
      <component glyphName="o" x="0" y="0" flags="0x0"/>
    </TTGlyph>
    <TTGlyph name="uni20BD" xMin="40" yMin="0" xMax="574" yMax="800">
      <contour>
        <pt x="398" y="800" on="0"/>
        <pt x="512" y="739" on="0"/>
        <pt x="574" y="627" on="0"/>
        <pt x="574" y="553" on="1"/>
        <pt x="574" y="479" on="0"/>
        <pt x="512" y="368" on="0"/>
        <pt x="398" y="307" on="0"/>
        <pt x="323" y="307" on="1"/>
        <pt x="265" y="307" on="1"/>
        <pt x="265" y="253" on="1"/>
        <pt x="400" y="253" on="1"/>
        <pt x="400" y="123" on="1"/>
        <pt x="265" y="123" on="1"/>
        <pt x="265" y="0" on="1"/>
        <pt x="109" y="0" on="1"/>
        <pt x="109" y="123" on="1"/>
        <pt x="40" y="123" on="1"/>
        <pt x="40" y="253" on="1"/>
        <pt x="109" y="253" on="1"/>
        <pt x="109" y="307" on="1"/>
        <pt x="40" y="307" on="1"/>
        <pt x="40" y="437" on="1"/>
        <pt x="109" y="437" on="1"/>
        <pt x="109" y="800" on="1"/>
        <pt x="323" y="800" on="1"/>
      </contour>
      <contour>
        <pt x="310" y="447" on="1"/>
        <pt x="357" y="447" on="0"/>
        <pt x="409" y="500" on="0"/>
        <pt x="409" y="547" on="1"/>
        <pt x="409" y="594" on="0"/>
        <pt x="357" y="647" on="0"/>
        <pt x="310" y="647" on="1"/>
        <pt x="265" y="647" on="1"/>
        <pt x="265" y="447" on="1"/>
      </contour>
    </TTGlyph>
    <TTGlyph name="v" xMin="24" yMin="0" xMax="576" yMax="613">
      <contour>
        <pt x="180" y="613" on="1"/>
        <pt x="303" y="101" on="1"/>
        <pt x="427" y="613" on="1"/>
        <pt x="576" y="613" on="1"/>
        <pt x="420" y="0" on="1"/>
        <pt x="180" y="0" on="1"/>
        <pt x="24" y="613" on="1"/>
      </contour>
    </TTGlyph>
    <TTGlyph name="w" xMin="19" yMin="0" xMax="581" yMax="613">
      <contour>
        <pt x="165" y="613" on="1"/>
        <pt x="204" y="118" on="1"/>
        <pt x="239" y="613" on="1"/>
        <pt x="369" y="613" on="1"/>
        <pt x="403" y="119" on="1"/>
        <pt x="442" y="613" on="1"/>
        <pt x="581" y="613" on="1"/>
        <pt x="501" y="0" on="1"/>
        <pt x="339" y="0" on="1"/>
        <pt x="302" y="491" on="1"/>
        <pt x="265" y="0" on="1"/>
        <pt x="99" y="0" on="1"/>
        <pt x="19" y="613" on="1"/>
      </contour>
    </TTGlyph>
    <TTGlyph name="x" xMin="34" yMin="0" xMax="566" yMax="613">
      <contour>
        <pt x="181" y="294" on="1"/>
        <pt x="34" y="613" on="1"/>
        <pt x="196" y="613" on="1"/>
        <pt x="300" y="378" on="1"/>
        <pt x="409" y="613" on="1"/>
        <pt x="566" y="613" on="1"/>
        <pt x="416" y="302" on="1"/>
        <pt x="556" y="0" on="1"/>
        <pt x="394" y="0" on="1"/>
        <pt x="298" y="216" on="1"/>
        <pt x="201" y="0" on="1"/>
        <pt x="44" y="0" on="1"/>
      </contour>
    </TTGlyph>
    <TTGlyph name="y" xMin="21" yMin="-219" xMax="579" yMax="613">
      <contour>
        <pt x="186" y="613" on="1"/>
        <pt x="314" y="105" on="1"/>
        <pt x="416" y="613" on="1"/>
        <pt x="579" y="613" on="1"/>
        <pt x="431" y="-65" on="1"/>
        <pt x="415" y="-141" on="0"/>
        <pt x="322" y="-219" on="0"/>
        <pt x="246" y="-219" on="1"/>
        <pt x="166" y="-219" on="0"/>
        <pt x="69" y="-123" on="0"/>
        <pt x="59" y="-31" on="1"/>
        <pt x="209" y="-31" on="1"/>
        <pt x="214" y="-60" on="0"/>
        <pt x="232" y="-86" on="0"/>
        <pt x="248" y="-86" on="1"/>
        <pt x="262" y="-86" on="0"/>
        <pt x="281" y="-62" on="0"/>
        <pt x="286" y="-35" on="1"/>
        <pt x="303" y="50" on="1"/>
        <pt x="178" y="50" on="1"/>
        <pt x="21" y="613" on="1"/>
      </contour>
    </TTGlyph>
    <TTGlyph name="yen" xMin="19" yMin="0" xMax="581" yMax="800">
      <contour>
        <pt x="301" y="482" on="1"/>
        <pt x="411" y="800" on="1"/>
        <pt x="581" y="800" on="1"/>
        <pt x="418" y="395" on="1"/>
        <pt x="519" y="395" on="1"/>
        <pt x="519" y="284" on="1"/>
        <pt x="381" y="284" on="1"/>
        <pt x="381" y="217" on="1"/>
        <pt x="519" y="217" on="1"/>
        <pt x="519" y="107" on="1"/>
        <pt x="381" y="107" on="1"/>
        <pt x="381" y="0" on="1"/>
        <pt x="219" y="0" on="1"/>
        <pt x="219" y="107" on="1"/>
        <pt x="80" y="107" on="1"/>
        <pt x="80" y="217" on="1"/>
        <pt x="219" y="217" on="1"/>
        <pt x="219" y="284" on="1"/>
        <pt x="80" y="284" on="1"/>
        <pt x="80" y="395" on="1"/>
        <pt x="182" y="395" on="1"/>
        <pt x="19" y="800" on="1"/>
        <pt x="191" y="800" on="1"/>
      </contour>
    </TTGlyph>
    <TTGlyph name="z" xMin="84" yMin="0" xMax="516" yMax="613">
      <contour>
        <pt x="516" y="613" on="1"/>
        <pt x="516" y="376" on="1"/>
        <pt x="172" y="136" on="1"/>
        <pt x="516" y="136" on="1"/>
        <pt x="516" y="0" on="1"/>
        <pt x="84" y="0" on="1"/>
        <pt x="84" y="238" on="1"/>
        <pt x="428" y="477" on="1"/>
        <pt x="84" y="477" on="1"/>
        <pt x="84" y="613" on="1"/>
      </contour>
    </TTGlyph>
    <TTGlyph name="zero" xMin="32" yMin="-19" xMax="568" yMax="819">
      <contour>
        <pt x="163" y="-19" on="0"/>
        <pt x="32" y="186" on="0"/>
        <pt x="32" y="400" on="1"/>
        <pt x="32" y="614" on="0"/>
        <pt x="163" y="819" on="0"/>
        <pt x="300" y="819" on="1"/>
        <pt x="437" y="819" on="0"/>
        <pt x="568" y="614" on="0"/>
        <pt x="568" y="400" on="1"/>
        <pt x="568" y="186" on="0"/>
        <pt x="437" y="-19" on="0"/>
        <pt x="300" y="-19" on="1"/>
      </contour>
      <contour>
        <pt x="389" y="580" on="1"/>
        <pt x="377" y="627" on="0"/>
        <pt x="333" y="672" on="0"/>
        <pt x="300" y="672" on="1"/>
        <pt x="245" y="672" on="0"/>
        <pt x="195" y="543" on="0"/>
        <pt x="195" y="400" on="1"/>
        <pt x="195" y="388" on="1"/>
      </contour>
      <contour>
        <pt x="223" y="173" on="0"/>
        <pt x="267" y="128" on="0"/>
        <pt x="300" y="128" on="1"/>
        <pt x="355" y="128" on="0"/>
        <pt x="405" y="257" on="0"/>
        <pt x="405" y="400" on="1"/>
        <pt x="405" y="412" on="1"/>
        <pt x="211" y="220" on="1"/>
      </contour>
    </TTGlyph>
</ttFont>
